 <!DOCTYPE svg PUBLIC "-//W3C//DTD SVG 1.1//EN" "http://www.w3.org/Graphics/SVG/1.1/DTD/svg11.dtd">
<svg id="b66d0fb8-42a9-4ca1-a78d-498a33ff0de1" data-name="Layer 1" xmlns="http://www.w3.org/2000/svg" width="865.76" height="682.89" viewBox="0 0 865.76 682.89">
<defs>
<style xmlns="http://www.w3.org/1999/xhtml">*, ::after, ::before { box-sizing: border-box; }
img, svg { vertical-align: middle; }
</style>
<style xmlns="http://www.w3.org/1999/xhtml">*, body, html { -webkit-font-smoothing: antialiased; }
img, svg { max-width: 100%; }
</style>
</defs>
<path d="M423,214.25a92.32,92.32,0,1,1,92.32-92.32A92.42,92.42,0,0,1,423,214.25Zm0-182.71a90.39,90.39,0,1,0,90.39,90.39A90.49,90.49,0,0,0,423,31.54Z" fill="#ccc"/>
<path d="M196.33,281.56a92.33,92.33,0,1,1,92.32-92.32A92.43,92.43,0,0,1,196.33,281.56Zm0-182.72a90.4,90.4,0,1,0,90.39,90.4A90.5,90.5,0,0,0,196.33,98.84Z" fill="#ccc"/>
<path d="M583.21,575.13s6.61,40.53,5,78.15H525.45l9.92-68.09Z" fill="#f9b499"/>
<path d="M531.24,653.28l7.38-62.3c18.18-.75,36-6.87,45.6-10.7a10.61,10.61,0,0,0,6.63-10.95c-1.65-15.86-7-48-9.86-64.55a67.53,67.53,0,0,0-11.23-27.43c-29.92-42.6-90.32-51.89-90.32-51.89l-72.21,2.15c-23.56-5-45.12-.76-62.86,6.55A123,123,0,0,0,283.72,489L261,530.35a12.48,12.48,0,0,0-.76,10.31c8.34,22.5,41.57,108.09,65,109.53" fill="#0071f2" data-primary="true"/>
<circle cx="444.04" cy="317.9" r="94.58" fill="#2f2e41" data-secondary="true"/>
<g opacity="0.2">
<path d="M534.86,319.35a1.45,1.45,0,0,1-1.45-1.39,89.43,89.43,0,0,0-178.73,0,1.45,1.45,0,1,1-2.89-.11,92.32,92.32,0,0,1,184.51,0,1.44,1.44,0,0,1-1.39,1.5Z"/>
</g>
<path d="M407.23,395.08v32.53s36.46,31.81,72.21-2.15V395.08Z" fill="#f9b499"/>
<path d="M383.84,603.33c-1.49-5.48.75-19.56,2.82-23a19.89,19.89,0,0,1,1.47-2.15,41.19,41.19,0,0,0,3.86-7,121.4,121.4,0,0,0,9.62-31.17,106.12,106.12,0,0,1,3-12.65c-35-16.55-10.06-51.91-10.06-51.91s-1.82-17.52,1.51-25.45a5,5,0,0,1,7.75-1.84c4.47,3.6,14,11.84,19.29,20.8,0,0,12.26-2.59,20.24,0,0,0,19.66-32.11,25.5-19.14,0,0,3.25,10.39,2.6,26.61,0,0,25,37.95-10.38,51.25,0,0,5.19,18.82,6.49,27.58,0,0,2.51,12.59,7.81,20.1a56.45,56.45,0,0,1,3.33,5.19c2.81,5.1,5.65,20.8,4.43,25.32" fill="#2f2e41" data-secondary="true"/>
<g opacity="0.2">
<path d="M434.28,533.85a96.52,96.52,0,0,1-27.21-4,.48.48,0,0,1,.31-.91c.27.09,27.32,8.92,49.92,0a.48.48,0,0,1,.63.27.48.48,0,0,1-.27.62A63.87,63.87,0,0,1,434.28,533.85Z"/>
</g>
<g opacity="0.2">
<path d="M407.23,582.07a.52.52,0,0,1-.35-.14c-6.83-6.87-7.6-19.26-7.63-19.78a.49.49,0,0,1,.46-.51.47.47,0,0,1,.5.45c0,.13.79,12.56,7.36,19.16a.49.49,0,0,1,0,.68A.51.51,0,0,1,407.23,582.07Z"/>
</g>
<g opacity="0.2">
<path d="M457.48,582.07a.49.49,0,0,1-.34-.14.48.48,0,0,1,0-.68c6.57-6.61,7.34-19,7.35-19.16a.47.47,0,0,1,.51-.45.48.48,0,0,1,.45.51c0,.52-.8,12.91-7.63,19.78A.49.49,0,0,1,457.48,582.07Z"/>
</g>
<path d="M451.57,553a.48.48,0,0,0-.66.16c-5.84,9.31-12,13.94-18.26,13.82-9.87-.23-16.86-12.38-16.92-12.51a.49.49,0,0,0-.66-.18.48.48,0,0,0-.18.66c.28.51,7,12.16,17,13v28.36a.48.48,0,0,0,.48.48.47.47,0,0,0,.48-.48V567.89h.1c6.53,0,12.86-4.8,18.79-14.27A.48.48,0,0,0,451.57,553Z" opacity="0.2"/>
<circle cx="414.15" cy="494.84" r="13.85" fill="#fff"/>
<circle cx="414.15" cy="494.84" r="10.69" fill="#2f2e41" data-secondary="true"/>
<circle cx="415.89" cy="488.24" r="1.74" fill="#fff"/>
<circle cx="419.37" cy="490.76" r="1.05" fill="#fff"/>
<circle cx="451.32" cy="495.14" r="13.85" fill="#fff"/>
<circle cx="451.32" cy="495.14" r="10.69" fill="#2f2e41" data-secondary="true"/>
<circle cx="453.05" cy="488.54" r="1.74" fill="#fff"/>
<circle cx="456.53" cy="491.05" r="1.05" fill="#fff"/>
<path d="M433.13,500a23.2,23.2,0,0,1,3-2.9,1,1,0,0,0,.42-.83v-.56a1,1,0,0,0-.53-.9c-1.2-.66-2.68-2.32-6-.4a2.64,2.64,0,0,0-1,2.39v0S432.54,498.91,433.13,500Z" opacity="0.2"/>
<g opacity="0.2">
<path d="M391.06,500.5H391l-9.48-1a.48.48,0,0,1-.43-.53.48.48,0,0,1,.53-.43l9.48,1a.49.49,0,0,1-.05,1Z"/>
</g>
<g opacity="0.2">
<path d="M390,505.11h-9.31a.48.48,0,0,1,0-1H390a.48.48,0,0,1,0,1Z"/>
</g>
<g opacity="0.2">
<path d="M484.09,505.11h-9.3a.48.48,0,1,1,0-1h9.3a.48.48,0,1,1,0,1Z"/>
</g>
<g opacity="0.2">
<path d="M383.62,512.56a.49.49,0,0,1-.2-.93l7.44-3.38a.48.48,0,1,1,.4.88l-7.44,3.38A.49.49,0,0,1,383.62,512.56Z"/>
</g>
<g opacity="0.2">
<path d="M481.93,512.85a.46.46,0,0,1-.23-.06l-7.15-4a.48.48,0,0,1-.19-.65A.49.49,0,0,1,475,508l7.15,4a.48.48,0,0,1,.18.65A.47.47,0,0,1,481.93,512.85Z"/>
</g>
<g opacity="0.2">
<path d="M475,500.5a.49.49,0,0,1-.48-.43.49.49,0,0,1,.43-.54l8.68-1a.49.49,0,0,1,.54.42.5.5,0,0,1-.43.54l-8.68,1Z"/>
</g>
<path d="M401.81,471.14s10.36-2,15.82-2.07c0,0-7.08-11.58-12-13.68a2.7,2.7,0,0,0-3.43,1.26C401.24,458.5,400.24,462.55,401.81,471.14Z" opacity="0.2"/>
<path d="M464,471.14s-10.36-2-15.82-2.07c0,0,7.08-11.58,12-13.68a2.7,2.7,0,0,1,3.43,1.26C464.52,458.5,465.52,462.55,464,471.14Z" opacity="0.2"/>
<path d="M361.39,594.7s3.3-14.17,8-22.85c0,0,10.41-20.68,10.33-37.29a18.55,18.55,0,0,0-8.73-16,14,14,0,0,0-14.59-.31,13,13,0,0,0-6.89,10.64c0,.16,0,.33,0,.5a5.46,5.46,0,0,1-6.46,5.32c-1.64-.36-3-1.53-3.31-4.33,0,0-2.27-13.7,10.44-21.09a25.57,25.57,0,0,1,18.51-2.54C376.87,508.66,388,514,390,529.36c0,0,1,20.8-6.92,36.81A137.28,137.28,0,0,0,377.42,579a180.77,180.77,0,0,0-5.73,17.2" fill="#2f2e41" data-secondary="true"/>
<path d="M265.8,541S234.62,608.63,244,629.58c0,0,7.17,19.29,26.47,23.7H440.72a145,145,0,0,0,37.07-4.81l6.48-1.71a4.73,4.73,0,0,0,3.38-5.73h0a4.73,4.73,0,0,0-5.42-3.51L457.36,642l30-5.72a6.12,6.12,0,0,0,4.85-7.28h0a6.12,6.12,0,0,0-7-4.79L455.71,629l33.3-5.67a5.6,5.6,0,0,0,4.57-6.51h0a5.6,5.6,0,0,0-6.18-4.56L456,616.07,488,612a6.37,6.37,0,0,0,5.45-7.42h0a6.37,6.37,0,0,0-6.94-5.21l-38.21,4.06s17.53-6.81,20.3-14.35a2.32,2.32,0,0,0-2.59-3.11c-7.92,1.46-31.44,6.53-45.27,17.18,0,0-69.2-13.78-88.49-13.23l7.39-9.72Z" fill="#f9b499"/>
<path d="M262.49,536.69s20,36.09,80.4,47.24l4.69-21.81Z" fill="#0071f2" data-primary="true"/>
<path d="M116.94,508.8a92.32,92.32,0,1,1,92.32-92.32A92.42,92.42,0,0,1,116.94,508.8Zm0-182.71a90.39,90.39,0,1,0,90.39,90.39A90.49,90.49,0,0,0,116.94,326.09Z" fill="#ccc"/>
<path d="M55.08,465.32l.3,1.83L56,471l.15.93c5.05,18.4,159.38-20.8,151.59-47.88l-.69-4.46a1.31,1.31,0,0,0,0-.28l-.11-.71h0l-4.8-.68C181.68,407.36,114.1,420.33,79.29,435l-14.88,2.11h0v.35a54.93,54.93,0,0,0,1.16,6.09c1.81,1.85,13.28,1.35,19,2.61,1.74.4,3,.95,3.22,1.79,1.35,4.67-20.57,10.53-28.68,17.77l-3.75-.36Zm65.4-30.7c.57,2.68-4.21,6-10.91,7.41s-12.38.36-12.95-2.33,4.21-6,10.87-7.41,12.4-.49,13,2.23Z" fill="#2f2e41" data-secondary="true"/>
<path d="M55.27,466.42v.63a.38.38,0,0,0,0,.15c5.1,18.94,155.53-19.59,151.6-47.76a1.22,1.22,0,0,0,0-.27,6.25,6.25,0,0,0-.17-.72h0c-6.78-23.7-108-3-140,16.24-1.64,1-2.4,1.74-2.52,2.33a.31.31,0,0,0,0,.19.48.48,0,0,0,0,.17c.78,3.05,21.39,1.2,22.53,5.12.31,1.13-.61,2.33-2.34,3.58-7.16,5.2-27.84,11.45-29.1,19.24A5.06,5.06,0,0,0,55.27,466.42Zm54.22-24.49c-6.59,1.39-12.38.36-12.95-2.34s4.21-6,10.86-7.41,12.4-.38,13,2.34S116.16,440.52,109.49,441.93Z" fill="#2f2e41" data-secondary="true"/>
<path d="M55.27,466.42v.63a.38.38,0,0,0,0,.15c5.1,18.94,155.53-19.59,151.6-47.76a1.22,1.22,0,0,0,0-.27,6.25,6.25,0,0,0-.17-.72h0c-6.78-23.7-108-3-140,16.24-1.64,1-2.4,1.74-2.52,2.33a.31.31,0,0,0,0,.19.48.48,0,0,0,0,.17c.78,3.05,21.39,1.2,22.53,5.12.31,1.13-.61,2.33-2.34,3.58-7.16,5.2-27.84,11.45-29.1,19.24A5.06,5.06,0,0,0,55.27,466.42Zm60.79-26.74a27.44,27.44,0,0,1-6.57,2.25c-6.59,1.39-12.38.36-12.95-2.34a3.17,3.17,0,0,1,1-2.69,19.14,19.14,0,0,1,9.87-4.72c6.61-1.41,12.4-.38,13,2.34C120.84,436.2,119.05,438.12,116.06,439.68Z" opacity="0.2" style="isolation:isolate"/>
<path d="M97.61,436.9a25.56,25.56,0,0,1,6.47-2.23c6.59-1.42,12.38-.38,13,2.33a3.17,3.17,0,0,1-1,2.68c3-1.56,4.78-3.48,4.42-5.16-.59-2.72-6.32-3.75-13-2.34A19.17,19.17,0,0,0,97.61,436.9Z" fill="#3f3d56"/>
<path d="M102.94,449.78a10.55,10.55,0,0,1,6.32,1.27,3.77,3.77,0,0,1,1.57,5.09,4,4,0,0,1-.65.89c-3.66,4-15.39,6.59-18.38.37C89.15,451.76,97.25,449.85,102.94,449.78Z" fill="#3f3d56"/>
<path d="M132.65,451h-.72a8.1,8.1,0,0,1-2.23-.44,4.53,4.53,0,0,1-1.87-1.26,2.08,2.08,0,0,1-.74-1.29,3.61,3.61,0,0,1,1.3-3.74,20.69,20.69,0,0,1,6.13-2.87c3-1.32,4.72-3.79,8.07-4.4,3.68-.67,8.42.13,10,3.18C156.82,448.25,137.85,451.45,132.65,451Z" opacity="0.3"/>
<path d="M137.2,419.42c-2.38,5.29,5.15,6.95,8.78,6.32s13.74-2.7,11.81-8c-1.14-3.18-4.91-3.33-8.28-2.55C144.78,415,138.82,415.78,137.2,419.42Z" opacity="0.3"/>
<path d="M187.39,417.44c5.47,3.77,1.28,10.68-3.26,12.87a50.08,50.08,0,0,1-11.31,3.3,5.62,5.62,0,0,1-6.55-2.27c-2.46-4.84,2.11-8.19,6.59-10.19C177.26,417.55,183,414.43,187.39,417.44Z" fill="#ebebeb"/>
<path d="M115.19,423.76s-15.83-13.62-31.58-28.45-56.07-39.68-57.71-39S59.59,390,76.66,402.66,112.06,427,112.06,427Z" fill="#2f2e41" data-secondary="true"/>
<polygon points="115.21 422.77 103.4 411.63 98.03 418.58 111.4 427.36 115.21 422.77" fill="#ebebeb"/>
<path d="M115.21,422.77c4.22.61,9.14,1.26,12.64,7.24,4.33,7.2,9.79,8.11,9.79,8.11S119,442.86,111.3,427.36Z" fill="#2f2e41" data-secondary="true"/>
<path d="M115.21,422.77c4.22.61,9.14,1.26,12.64,7.24,4.33,7.2,9.79,8.11,9.79,8.11S119,442.86,111.3,427.36Z" opacity="0.4"/>
<path d="M138.52,438.33c-.67-1-5.77-1.85-8.42-5.56s-12.63,4.32-6.86,5.85C129.81,440.37,139.74,440.06,138.52,438.33Z" fill="#3f3d56"/>
<path d="M477.13,129.08c3.24,0,2.38-53.39-10.19-67.37-1.81-2.11-30.28,34.57-30.68,35.79S470.41,128.85,477.13,129.08Z" fill="#2f2e41" data-secondary="true"/>
<path d="M476.14,128.85c2.76,0,2.11-45.56-8.69-57.56-1.54-1.73-25.86,29.48-26.2,30.57S470.41,128.66,476.14,128.85Z" opacity="0.1" style="isolation:isolate"/>
<path d="M366.59,138.52c-3.24.42-7.37-52.94,3.84-68.12,1.62-2.1,33.39,31.59,33.89,32.81S373.25,137.63,366.59,138.52Z" fill="#2f2e41" data-secondary="true"/>
<path d="M367.54,138.2c-2.74.36-6.32-45.16,3.29-58.13,1.39-1.85,28.48,27,28.92,28S373.23,137.46,367.54,138.2Z" opacity="0.1" style="isolation:isolate"/>
<path d="M456.33,176.77c1-.31,21.43-14.5,28.34-35.28C485.85,138,459.05,101,446,94.22c-6.57-3.41-45.48,2.1-47.81,2.88-9.14,2.93-36,41.14-34.7,52.85.44,4.21,13.26,21.05,35.6,30.36C404.58,182.58,432.66,184.27,456.33,176.77Z" fill="#2f2e41" data-secondary="true"/>
<path d="M456.52,126.94c7.05-.74,11.33,5.91,12.21,14.12.7,6.64-2.76,13.88-9.52,14.6s-11.77-6.83-12.44-13.06S448.88,127.76,456.52,126.94Z" opacity="0.1" style="isolation:isolate"/>
<path d="M456,128.73c6.62-.7,10.64,5.55,11.46,13.28.67,6.32-2.57,13-8.93,13.73s-11.07-6.32-11.71-12.3S448.83,129.51,456,128.73Z" fill="#fff"/>
<path d="M455.91,131.32c5.18-.55,8.42,4.33,9,10.38.52,4.9-2.11,10.23-7,10.75s-8.68-5-9.16-9.62S450.29,131.88,455.91,131.32Z" fill="#2f2e41" data-secondary="true"/>
<path d="M452.08,129.74c2.35-.26,3.79,2,4.08,4.71a4.22,4.22,0,0,1-3.18,4.89c-2.25.23-3.94-2.28-4.21-4.36S449.53,130,452.08,129.74Z" fill="#fff"/>
<path d="M406.64,133.53c-9.12-1.2-14.74,5.18-15.73,13.37a13.81,13.81,0,0,0,12.19,15.26l.21,0a14.74,14.74,0,0,0,16.07-12.29,14.53,14.53,0,0,0-12.47-16.33Z" opacity="0.1" style="isolation:isolate"/>
<path d="M407.29,135.36c-8.57-1.14-13.77,4.88-14.74,12.63A13,13,0,0,0,404,162.33l.18,0a13.83,13.83,0,0,0,15.09-11.56,13.65,13.65,0,0,0-11.68-15.39Z" fill="#fff"/>
<path d="M406.79,137.84c-6.72-.9-10.78,3.81-11.58,9.84a10.19,10.19,0,0,0,9,11.23h.1a10.83,10.83,0,0,0,11.82-9,10.67,10.67,0,0,0-9.17-12Z" fill="#2f2e41" data-secondary="true"/>
<path d="M400.87,135.53a4.82,4.82,0,1,0-1.12,9.58h0a4.82,4.82,0,0,0,1.12-9.58Z" fill="#fff"/>
<path d="M443.78,156.43a9.24,9.24,0,0,1-1.28,1.37,1.4,1.4,0,0,1-.64.3,1.57,1.57,0,0,1-.61-.26,4.42,4.42,0,0,1-1.11-1.32,11.72,11.72,0,0,1-.87-1.69,29.58,29.58,0,0,1-1.31-3.55,16.58,16.58,0,0,0,4.22-3.37c0-.76-4.21-.82-5.31-.78s-5.41.57-5.24,1.32a15.49,15.49,0,0,0,4.9,3.12,27.56,27.56,0,0,1-1.59,4,10.52,10.52,0,0,1-1.18,2,3.67,3.67,0,0,1-1.56,1.31h-.95a4.85,4.85,0,0,1-1-.36,9.3,9.3,0,0,1-1.89-1.35,22.39,22.39,0,0,1-3.16-3.58,17,17,0,0,0,2.74,4,8.77,8.77,0,0,0,1.91,1.63,3.7,3.7,0,0,0,2.63.59,4.47,4.47,0,0,0,2.23-1.56,12.21,12.21,0,0,0,1.39-2.11,24.54,24.54,0,0,0,1.22-2.72c.25.65.52,1.28.83,1.9a13.83,13.83,0,0,0,1,1.79,5.09,5.09,0,0,0,1.56,1.54A2.07,2.07,0,0,0,442,159a1.79,1.79,0,0,0,1.09-.59,7.42,7.42,0,0,0,1.25-1.64,20.35,20.35,0,0,0,1.6-3.6C445.19,154.29,444.48,155.4,443.78,156.43Z" fill="#3f3d56"/>
<path d="M443.78,156.43a9.24,9.24,0,0,1-1.28,1.37,1.4,1.4,0,0,1-.64.3,1.57,1.57,0,0,1-.61-.26,4.42,4.42,0,0,1-1.11-1.32,11.72,11.72,0,0,1-.87-1.69,29.58,29.58,0,0,1-1.31-3.55,16.58,16.58,0,0,0,4.22-3.37c0-.76-4.21-.82-5.31-.78s-5.41.57-5.24,1.32a15.49,15.49,0,0,0,4.9,3.12,27.56,27.56,0,0,1-1.59,4,10.52,10.52,0,0,1-1.18,2,3.67,3.67,0,0,1-1.56,1.31h-.95a4.85,4.85,0,0,1-1-.36,9.3,9.3,0,0,1-1.89-1.35,22.39,22.39,0,0,1-3.16-3.58,17,17,0,0,0,2.74,4,8.77,8.77,0,0,0,1.91,1.63,3.7,3.7,0,0,0,2.63.59,4.47,4.47,0,0,0,2.23-1.56,12.21,12.21,0,0,0,1.39-2.11,24.54,24.54,0,0,0,1.22-2.72c.25.65.52,1.28.83,1.9a13.83,13.83,0,0,0,1,1.79,5.09,5.09,0,0,0,1.56,1.54A2.07,2.07,0,0,0,442,159a1.79,1.79,0,0,0,1.09-.59,7.42,7.42,0,0,0,1.25-1.64,20.35,20.35,0,0,0,1.6-3.6C445.19,154.29,444.48,155.4,443.78,156.43Z" opacity="0.2"/>
<path d="M466.27,125.55a45.36,45.36,0,0,1,1.68-8.64,30.17,30.17,0,0,1,3.52-7.91,19.85,19.85,0,0,1,6-6.17c.59-.42,1.24-.76,1.85-1.12a9.42,9.42,0,0,1,2.11-.88,26.38,26.38,0,0,1,4.21-1.22,19.3,19.3,0,0,0-8.42,2.71,16.66,16.66,0,0,0-3.52,2.78,21.07,21.07,0,0,0-2.84,3.48,29,29,0,0,0-3.5,8.19A33.28,33.28,0,0,0,466.27,125.55Z" fill="#3f3d56"/>
<path d="M464.2,124.62a55.79,55.79,0,0,1,.72-12.63,44.61,44.61,0,0,1,3.73-12,37.81,37.81,0,0,1,3.13-5.46,38.65,38.65,0,0,1,4-4.84,37.59,37.59,0,0,1,4.8-4.21,48,48,0,0,1,5.35-3.37,37.53,37.53,0,0,0-10.53,7A36.25,36.25,0,0,0,471.19,94a37.09,37.09,0,0,0-3.28,5.7A42.93,42.93,0,0,0,464.29,112,45.43,45.43,0,0,0,464.2,124.62Z" fill="#3f3d56"/>
<path d="M471.47,146.77c3.85-.4,7.72-.67,11.58-.84s7.72-.3,11.6-.25h5.79c1.94,0,3.87.14,5.79.25,3.87.17,7.73.52,11.58.86-1.92-.31-3.81-.63-5.75-.86s-3.85-.47-5.79-.61c-3.85-.34-7.75-.44-11.62-.49s-7.77.13-11.64.45c-1.92.14-3.86.33-5.79.54S473.43,146.39,471.47,146.77Z" fill="#3f3d56"/>
<path d="M473.15,149c1.75,0,3.48,0,5.22.15s3.5.12,5.25.21c3.47.19,6.94.4,10.52.71,1.75.13,3.48.3,5.2.47l5.2.59,2.62.31,2.56.36c1.75.21,3.46.55,5.2.78q-5.11-1.26-10.29-2.11c-3.45-.56-6.93-.9-10.42-1.22s-7-.48-10.53-.52S476.63,148.73,473.15,149Z" fill="#3f3d56"/>
<path d="M472.2,151.19c1.46.21,2.89.4,4.22.63l4.31.72q4.31.72,8.57,1.54c2.84.54,5.71,1.13,8.55,1.74s5.66,1.27,8.42,1.88c-1.37-.47-2.76-.89-4.21-1.31s-2.8-.8-4.21-1.16c-2.82-.73-5.66-1.34-8.53-1.91s-5.75-1-8.63-1.39A82.61,82.61,0,0,0,472.2,151.19Z" fill="#3f3d56"/>
<path d="M466.27,125.55a45.36,45.36,0,0,1,1.68-8.64,30.17,30.17,0,0,1,3.52-7.91,19.85,19.85,0,0,1,6-6.17c.59-.42,1.24-.76,1.85-1.12a9.42,9.42,0,0,1,2.11-.88,26.38,26.38,0,0,1,4.21-1.22,19.3,19.3,0,0,0-8.42,2.71,16.66,16.66,0,0,0-3.52,2.78,21.07,21.07,0,0,0-2.84,3.48,29,29,0,0,0-3.5,8.19A33.28,33.28,0,0,0,466.27,125.55Z"/>
<path d="M464.2,124.62a55.79,55.79,0,0,1,.72-12.63,44.61,44.61,0,0,1,3.73-12,37.81,37.81,0,0,1,3.13-5.46,38.65,38.65,0,0,1,4-4.84,37.59,37.59,0,0,1,4.8-4.21,48,48,0,0,1,5.35-3.37,37.53,37.53,0,0,0-10.53,7A36.25,36.25,0,0,0,471.19,94a37.09,37.09,0,0,0-3.28,5.7A42.93,42.93,0,0,0,464.29,112,45.43,45.43,0,0,0,464.2,124.62Z"/>
<path d="M471.47,146.77c3.85-.4,7.72-.67,11.58-.84s7.72-.3,11.6-.25h5.79c1.94,0,3.87.14,5.79.25,3.87.17,7.73.52,11.58.86-1.92-.31-3.81-.63-5.75-.86s-3.85-.47-5.79-.61c-3.85-.34-7.75-.44-11.62-.49s-7.77.13-11.64.45c-1.92.14-3.86.33-5.79.54S473.43,146.39,471.47,146.77Z"/>
<path d="M473.15,149c1.75,0,3.48,0,5.22.15s3.5.12,5.25.21c3.47.19,6.94.4,10.52.71,1.75.13,3.48.3,5.2.47l5.2.59,2.62.31,2.56.36c1.75.21,3.46.55,5.2.78q-5.11-1.26-10.29-2.11c-3.45-.56-6.93-.9-10.42-1.22s-7-.48-10.53-.52S476.63,148.73,473.15,149Z"/>
<path d="M472.2,151.19c1.46.21,2.89.4,4.22.63l4.31.72q4.31.72,8.57,1.54c2.84.54,5.71,1.13,8.55,1.74s5.66,1.27,8.42,1.88c-1.37-.47-2.76-.89-4.21-1.31s-2.8-.8-4.21-1.16c-2.82-.73-5.66-1.34-8.53-1.91s-5.75-1-8.63-1.39A82.61,82.61,0,0,0,472.2,151.19Z"/>
<path d="M377.06,134a43.06,43.06,0,0,0-1-4.21,38.67,38.67,0,0,0-1.44-4.21,30.62,30.62,0,0,0-4.31-7.56,18.82,18.82,0,0,0-10.63-7.26,25.24,25.24,0,0,0-4.22-.85,19.49,19.49,0,0,1,8.62,1.92,17.57,17.57,0,0,1,3.76,2.44,22.62,22.62,0,0,1,3.14,3.2,29.5,29.5,0,0,1,4.21,7.81A32.62,32.62,0,0,1,377.06,134Z" fill="#3f3d56"/>
<path d="M379,132.87a43.12,43.12,0,0,0-.55-6.31,46.59,46.59,0,0,0-1.29-6.19,45,45,0,0,0-4.82-11.6,38.49,38.49,0,0,0-3.64-5.14,41.36,41.36,0,0,0-4.44-4.44,37,37,0,0,0-5.14-3.67,46.43,46.43,0,0,0-5.58-2.84,37,37,0,0,1,11.18,6,34,34,0,0,1,4.61,4.45,39.22,39.22,0,0,1,3.75,5.2,43.67,43.67,0,0,1,4.76,11.85A45.23,45.23,0,0,1,379,132.87Z" fill="#3f3d56"/>
<path d="M385.35,159.32c-2.4-.17-4.8-.21-7.2-.23s-4.82,0-7.22.12c-4.82.19-9.62.59-14.4,1.12s-9.54,1.24-14.28,2.1c-2.35.45-4.71,1-7.05,1.52-1.18.25-2.34.57-3.49.89l-3.48.94c4.7-1,9.39-2.1,14.13-2.76,2.38-.4,4.74-.75,7.12-1.11s4.75-.65,7.13-.89c4.78-.59,9.56-1,14.34-1.28S380.55,159.32,385.35,159.32Z" fill="#3f3d56"/>
<path d="M383.65,162.27c-4.34.21-8.66.67-12.95,1.24s-8.57,1.33-12.84,2.1-8.43,1.81-12.64,2.95-8.42,2.42-12.4,3.88c2.11-.55,4.21-1.2,6.32-1.71l3.14-.82,3.15-.76c2.11-.53,4.21-1,6.32-1.47s4.21-.91,6.32-1.31c4.21-.86,8.42-1.6,12.76-2.29,2.1-.34,4.21-.68,6.31-1S381.5,162.54,383.65,162.27Z" fill="#3f3d56"/>
<path d="M385.14,164.86c-3.58.56-7.11,1.34-10.63,2.1s-7,1.88-10.53,2.93-6.86,2.23-10.25,3.51c-1.69.64-3.37,1.33-5.05,2l-5,2.11c3.41-1.2,6.8-2.42,10.23-3.58s6.82-2.3,10.27-3.35,6.91-2.1,10.38-3.09c1.73-.49,3.48-1,5.23-1.41S383.35,165.3,385.14,164.86Z" fill="#3f3d56"/>
<g opacity="0.4" style="isolation:isolate">
<path d="M377.06,134a43.06,43.06,0,0,0-1-4.21,38.67,38.67,0,0,0-1.44-4.21,30.62,30.62,0,0,0-4.31-7.56,18.82,18.82,0,0,0-10.63-7.26,25.24,25.24,0,0,0-4.22-.85,19.49,19.49,0,0,1,8.62,1.92,17.57,17.57,0,0,1,3.76,2.44,22.62,22.62,0,0,1,3.14,3.2,29.5,29.5,0,0,1,4.21,7.81A32.62,32.62,0,0,1,377.06,134Z"/>
<path d="M379,132.87a43.12,43.12,0,0,0-.55-6.31,46.59,46.59,0,0,0-1.29-6.19,45,45,0,0,0-4.82-11.6,38.49,38.49,0,0,0-3.64-5.14,41.36,41.36,0,0,0-4.44-4.44,37,37,0,0,0-5.14-3.67,46.43,46.43,0,0,0-5.58-2.84,37,37,0,0,1,11.18,6,34,34,0,0,1,4.61,4.45,39.22,39.22,0,0,1,3.75,5.2,43.67,43.67,0,0,1,4.76,11.85A45.23,45.23,0,0,1,379,132.87Z"/>
<path d="M385.35,159.32c-2.4-.17-4.8-.21-7.2-.23s-4.82,0-7.22.12c-4.82.19-9.62.59-14.4,1.12s-9.54,1.24-14.28,2.1c-2.35.45-4.71,1-7.05,1.52-1.18.25-2.34.57-3.49.89l-3.48.94c4.7-1,9.39-2.1,14.13-2.76,2.38-.4,4.74-.75,7.12-1.11s4.75-.65,7.13-.89c4.78-.59,9.56-1,14.34-1.28S380.55,159.32,385.35,159.32Z"/>
<path d="M383.65,162.27c-4.34.21-8.66.67-12.95,1.24s-8.57,1.33-12.84,2.1-8.43,1.81-12.64,2.95-8.42,2.42-12.4,3.88c2.11-.55,4.21-1.2,6.32-1.71l3.14-.82,3.15-.76c2.11-.53,4.21-1,6.32-1.47s4.21-.91,6.32-1.31c4.21-.86,8.42-1.6,12.76-2.29,2.1-.34,4.21-.68,6.31-1S381.5,162.54,383.65,162.27Z"/>
<path d="M385.14,164.86c-3.58.56-7.11,1.34-10.63,2.1s-7,1.88-10.53,2.93-6.86,2.23-10.25,3.51c-1.69.64-3.37,1.33-5.05,2l-5,2.11c3.41-1.2,6.8-2.42,10.23-3.58s6.82-2.3,10.27-3.35,6.91-2.1,10.38-3.09c1.73-.49,3.48-1,5.23-1.41S383.35,165.3,385.14,164.86Z"/>
</g>
<path d="M182.71,226.61c-.74-.87-11-8.05-11.82-8.59l1.77-.3S182,225.7,182.71,226.61Z" fill="#3f3d56"/>
<path d="M182.71,226.61c-.74-.87-11-8.05-11.82-8.59l1.77-.3S182,225.7,182.71,226.61Z" fill="#fff" opacity="0.5" style="isolation:isolate"/>
<path d="M182.71,226.67h0a3.3,3.3,0,0,1-1.58.44h0a6.23,6.23,0,0,1-2.11,0c-.23-.14-7.64-3.87-12.19-6.12l-.17-.11h0l-.63-.32-1.87-.92-.74-.36,7.64-1.33c.44.32,3.92,2.74,7,5l.32.23.84.59q1.81,1.36,3.5,2.89h0Z" fill="#2f2e41" data-secondary="true"/>
<g opacity="0.1">
<path d="M182.71,226.67h0a3.3,3.3,0,0,1-1.58.44h0a6.23,6.23,0,0,1-2.11,0c-.23-.14-7.85-4-12.36-6.31.74.38,10.53,5.07,12.49,2.82a45.79,45.79,0,0,1,3.56,3h0Z"/>
</g>
<path d="M283.28,235.05h0c0,1-5.64,1.35-6.31,1.14s-62.14-24.36-62.14-24.36l22.55-8.93.66.44.29.21c4.21,2.89,16.57,11.48,27.37,18.95l.63.44.85.59C274.65,228.92,281.18,233.47,283.28,235.05Z" fill="#2f2e41" data-secondary="true"/>
<path d="M283.28,235.05c-5.49-4.11-41.28-28.91-46-32.15l2.86-1.14s41.69,31.71,43,33A.56.56,0,0,1,283.28,235.05Z" fill="#2f2e41" data-secondary="true"/>
<path d="M283.28,235.05c-5.49-4.11-41.28-28.91-46-32.15l2.86-1.14s41.69,31.71,43,33A.56.56,0,0,1,283.28,235.05Z" fill="#fff" opacity="0.2" style="isolation:isolate"/>
<g opacity="0.5">
<path d="M283.28,235.05h0c0,1-5.64,1.35-6.31,1.14s-62.14-24.36-62.14-24.36l22.55-8.93s-5.58,6.32,7.67,16.19c9,6.68,18.61,8.06,22.17,4.55C274.65,228.92,281.18,233.47,283.28,235.05Z" opacity="0.1" style="isolation:isolate"/>
</g>
<path d="M232.16,219.74c-1.72.85-3.62,1.5-3.77-.25,0-.71.51-1.47,3.31-2.82.65-.32,2.27-1,2.74.44S232.84,219.43,232.16,219.74Z"/>
<path d="M232.17,219.74c-1.72.85-3.62,1.5-3.77-.25,0-.72.51-1.47,3.31-2.82.65-.32,2.27-1,2.74.44S232.85,219.43,232.17,219.74Z" opacity="0.2" style="isolation:isolate"/>
<path d="M246.4,225.55c-1.75.85-3.65,1.52-3.77-.23,0-.71.48-1.49,3.28-2.84.68-.32,2.28-1,2.74.44S247.05,225.24,246.4,225.55Z"/>
<path d="M246.41,225.55c-1.75.85-3.65,1.52-3.77-.23,0-.71.48-1.49,3.28-2.84.68-.32,2.28-1,2.74.44S247.06,225.24,246.41,225.55Z" opacity="0.2" style="isolation:isolate"/>
<path d="M260.61,231.39c-1.75.84-3.64,1.49-3.77-.26,0-.71.5-1.47,3.3-2.82.66-.31,2.26-1,2.72.42S261.26,231,260.61,231.39Z"/>
<path d="M260.62,231.39c-1.75.84-3.64,1.49-3.77-.26,0-.71.5-1.47,3.31-2.82.65-.31,2.25-1,2.71.42S261.27,231,260.62,231.39Z" opacity="0.2" style="isolation:isolate"/>
<path d="M256,216.08c-1.7,3-5.6,4.21-8.06,5.14-6.53,2.61-11.26,4.08-13.6-1.86a7,7,0,0,1-.53-2.1c-.38-4.49,4.21-6.72,6.61-8h0c2.85-1.49,4.85-2.46,6.32-3.09a11.7,11.7,0,0,1,4.67-1.2c1.31,0,4.22.29,5.29,5.76A7.7,7.7,0,0,1,256,216.08Z" fill="#2f2e41" data-secondary="true"/>
<path d="M256,211.83c0,3.34-2.11,6-4.65,6s-4.68-2.7-4.68-6,2.11-6.05,4.68-6.05S256,208.5,256,211.83Z" fill="#2f2e41" data-secondary="true"/>
<path d="M255.49,211.83a4.21,4.21,0,1,1-4.1-5.33A4.84,4.84,0,0,1,255.49,211.83Z" fill="#fff" opacity="0.2" style="isolation:isolate"/>
<path d="M158.41,210.23l-1.08.4-2.42.88-8.42-3.62c-8.15-3.52-17.77-7.62-19.64-8.23h.9l.63.21.68.21,1.83.61.63.21.61.19h.32l1,.34.65.23,8.65,2.9.83.28,3.22,1.09,5.56,1.88.77.27,2.43.82h0l.63.21h.42Z" fill="#2f2e41" data-secondary="true"/>
<path d="M158.41,210.23l-1.08.4-2.42.88-8.42-3.62c-8.15-3.52-17.77-7.62-19.64-8.23h.9l.63.21.68.21,1.83.61.63.21.61.19h.32l1,.34.65.23,8.65,2.9.83.28,3.22,1.09,5.56,1.88.77.27,2.43.82h0l.63.21h.42Z" fill="#fff" opacity="0.5" style="isolation:isolate"/>
<path d="M154.91,211.51l-6.52,2.38s-14.53-6.76-23.16-11h-.11l-2.51-1.24a20.67,20.67,0,0,1-3.6-2,18,18,0,0,1,7.79,0h.13c1.81.59,10.87,4.46,18.82,7.87h.19l.63.3Z" fill="#2f2e41" data-secondary="true"/>
<g opacity="0.1">
<path d="M154.91,211.51l-6.52,2.38s-14.53-6.76-23.16-11c1.43.61,16.14,7.1,19.77,6.19a2.08,2.08,0,0,0,1.53-1.2Z"/>
</g>
<path d="M171.65,202.23l-15.79,7.6s.15-13.54.27-23.29v-9.07c0-3.92.49-4.72,1.52-4.09a50.49,50.49,0,0,1,7,6.44c1.14,1.48,3.67,10.38,5.31,16.49v.15a4.74,4.74,0,0,0,.27,1C171.17,200.29,171.65,202.23,171.65,202.23Z" fill="#2f2e41" data-secondary="true"/>
<g opacity="0.1">
<path d="M171.65,202.23l-15.79,7.6s.15-13.54.27-23.29c2.34,5.18,6.93,12.28,14.3,11C171.17,200.29,171.65,202.23,171.65,202.23Z"/>
</g>
<path d="M144.81,218.1c-1.62-4.06,5.28-7.75,13.13-11.26s85.11-37.61,96.31-40.64,24.23,1.12,26.44,7.52c3.31,9.6-10.52,17.64-60.68,38.4-6.56,2.72-35.89,9.75-52.4,9.81C150,222,145.61,220.1,144.81,218.1Z" fill="#2f2e41" data-secondary="true"/>
<path d="M144.81,218.1c-1.62-4.06,5.28-7.75,13.13-11.26s85.11-37.61,96.31-40.64,24.23,1.12,26.44,7.52c3.31,9.6-10.52,17.64-60.68,38.4-6.56,2.72-35.89,9.75-52.4,9.81C150,222,145.61,220.1,144.81,218.1Z" fill="#fff" opacity="0.5" style="isolation:isolate"/>
<path d="M220,212.23C213.43,215,184.1,222,167.6,222c-17.63,0-22-1.81-22.81-3.83s.66-4.21,3.37-6.08a3.3,3.3,0,0,0,.21,1.2c.74,1.81,4.7,3.51,20.7,3.45,15,0,36.49-12.17,42.45-14.74,45.41-18.95,63.16-20.4,60.15-29.12-1.3-3.79-6.82-6.71-13.31-7.51,10.07-1.2,20.39,2.69,22.32,8.42C284,183.47,270.05,191.51,220,212.23Z" opacity="0.1" style="isolation:isolate"/>
<polygon points="169.31 204.71 171.08 203.93 171.08 206.54 169.31 207.32 169.31 204.71" fill="#2f2e41" data-secondary="true"/>
<polygon points="172.56 203.3 174.45 202.48 174.45 205.09 172.56 205.91 172.56 203.3" fill="#2f2e41" data-secondary="true"/>
<polygon points="175.9 201.85 177.8 201.03 177.8 203.64 175.9 204.46 175.9 201.85" fill="#2f2e41" data-secondary="true"/>
<polygon points="179.27 200.39 181.17 199.57 181.17 202.18 179.27 203 179.27 200.39" fill="#2f2e41" data-secondary="true"/>
<polygon points="182.62 198.94 184.52 198.12 184.52 200.73 182.62 201.55 182.62 198.94" fill="#2f2e41" data-secondary="true"/>
<polygon points="185.99 197.49 187.88 196.67 187.88 199.28 185.99 200.1 185.99 197.49" fill="#2f2e41" data-secondary="true"/>
<polygon points="189.36 196.04 191.25 195.22 191.25 197.83 189.36 198.65 189.36 196.04" fill="#3f3d56"/>
<polygon points="192.71 194.58 194.6 193.76 194.6 196.37 192.71 197.19 192.71 194.58" fill="#3f3d56"/>
<polygon points="196.07 193.13 197.97 192.31 197.97 194.92 196.07 195.72 196.07 193.13" fill="#3f3d56"/>
<polygon points="199.42 191.68 201.32 190.86 201.32 193.47 199.42 194.29 199.42 191.68" fill="#3f3d56"/>
<polygon points="202.79 190.2 204.69 189.38 204.69 192.01 202.79 192.81 202.79 190.2" fill="#3f3d56"/>
<polygon points="206.14 188.75 208.03 187.93 208.03 190.54 206.14 191.36 206.14 188.75" fill="#3f3d56"/>
<polygon points="209.51 187.3 211.4 186.48 211.4 189.09 209.51 189.91 209.51 187.3" fill="#3f3d56"/>
<polygon points="212.86 185.84 214.75 185.02 214.75 187.63 212.86 188.46 212.86 185.84" fill="#2f2e41" data-secondary="true"/>
<polygon points="216.22 184.39 218.12 183.57 218.12 186.18 216.22 187 216.22 184.39" fill="#2f2e41" data-secondary="true"/>
<polygon points="219.57 182.94 221.49 182.12 221.49 184.73 219.57 185.55 219.57 182.94" fill="#2f2e41" data-secondary="true"/>
<polygon points="222.94 181.49 224.84 180.67 224.84 183.28 222.94 184.1 222.94 181.49" fill="#2f2e41" data-secondary="true"/>
<polygon points="226.31 180.03 228.2 179.21 228.2 181.82 226.31 182.65 226.31 180.03" fill="#2f2e41" data-secondary="true"/>
<polygon points="229.66 178.58 231.55 177.76 231.55 180.37 229.66 181.19 229.66 178.58" fill="#2f2e41" data-secondary="true"/>
<polygon points="233.03 177.13 234.92 176.31 234.92 178.92 233.03 179.74 233.03 177.13" fill="#2f2e41" data-secondary="true"/>
<polygon points="236.37 175.68 238.27 174.85 238.27 177.47 236.37 178.29 236.37 175.68" fill="#2f2e41" data-secondary="true"/>
<polygon points="241.64 173.4 241.64 176.01 239.74 176.83 239.74 174.22 241.64 173.4" fill="#2f2e41" data-secondary="true"/>
<polygon points="245.01 171.95 245.01 174.56 243.09 175.38 243.09 172.77 245.01 171.95" fill="#2f2e41" data-secondary="true"/>
<polygon points="248.35 170.5 248.35 173.11 246.46 173.93 246.46 171.32 248.35 170.5" fill="#2f2e41" data-secondary="true"/>
<polygon points="251.72 169.04 251.72 171.65 249.83 172.48 249.83 169.84 251.72 169.04" fill="#2f2e41" data-secondary="true"/>
<path d="M260.61,168a9.19,9.19,0,0,1,3.51-1.64v1.72Z" fill="#2f2e41" data-secondary="true"/>
<path d="M268.15,165.91v2.4c-.89,0-1.77-.13-2.66-.17V166A13.91,13.91,0,0,1,268.15,165.91Z" fill="#2f2e41" data-secondary="true"/>
<path d="M276.59,169.3a16,16,0,0,1-2.11-.24c-.69-.08-1.34-.18-2.1-.25s-1.92-.25-2.87-.36v-2.38a13.56,13.56,0,0,1,3.37.91,11.62,11.62,0,0,1,1.92,1,5.43,5.43,0,0,1,.88.63A6.87,6.87,0,0,1,276.59,169.3Z" fill="#2f2e41" data-secondary="true"/>
<path d="M216.22,190.58,194,201.28s-35.39-18.95-60.79-32.83h0c-13.62-7.45-24-13.22-23.79-13.41.42-.59,7.24-.5,9.94-.15a5.36,5.36,0,0,1,.78.15c1.13.32,41.18,15.14,69.23,25.54Z" fill="#2f2e41" data-secondary="true"/>
<g opacity="0.1">
<path d="M216.22,190.58,194,201.28s-35.39-18.95-60.79-32.83c2.11,1,47.52,23.94,53.46,20.49,2.25-1.28,2.84-4.65,2.7-8.42Z"/>
</g>
<path d="M219.47,189.11l-6.61,3.18c-16.85-7.1-87.28-34.91-93.17-37.25h-.34a5.12,5.12,0,0,1,.78.15C121.84,155.53,219.47,189.11,219.47,189.11Z" fill="#2f2e41" data-secondary="true"/>
<path d="M219.47,189.11l-6.61,3.18c-16.85-7.1-87.28-34.91-93.17-37.25h-.34a5.12,5.12,0,0,1,.78.15C121.84,155.53,219.47,189.11,219.47,189.11Z" fill="#fff" opacity="0.2" style="isolation:isolate"/>
<path d="M171.78,189.61c-2.11,1.06-4.55,1.9-4.72-.29,0-.91.63-1.85,4.21-3.54.82-.4,2.84-1.28,3.43.55S172.6,189.21,171.78,189.61Z" fill="#2f2e41" data-secondary="true"/>
<path d="M152.93,180.1c-2.1,1.05-4.52,1.89-4.71-.3,0-.9.63-1.85,4.21-3.53.82-.4,2.82-1.29,3.41.52S153.75,179.7,152.93,180.1Z" fill="#2f2e41" data-secondary="true"/>
<path d="M134.05,170.45c-2.11,1-4.21,1.77-4.4-.27,0-.84.59-1.73,3.85-3.28.76-.38,2.63-1.2,3.18.5S134.81,170.1,134.05,170.45Z" fill="#2f2e41" data-secondary="true"/>
<g opacity="0.2">
<path d="M171.63,189.59c-2.11,1-4.55,1.89-4.72-.29,0-.91.64-1.86,4.22-3.54.82-.4,2.84-1.29,3.43.55S172.45,189.19,171.63,189.59Z" opacity="0.4" style="isolation:isolate"/>
<path d="M152.79,180.07c-2.11,1.06-4.53,1.9-4.72-.29,0-.91.63-1.85,4.21-3.54.82-.4,2.82-1.28,3.41.53S153.61,179.67,152.79,180.07Z" opacity="0.4" style="isolation:isolate"/>
<path d="M133.9,170.43c-2.11,1-4.21,1.77-4.4-.27,0-.85.59-1.73,3.85-3.29.76-.38,2.63-1.2,3.18.51S134.66,170.07,133.9,170.43Z" opacity="0.4" style="isolation:isolate"/>
</g>
<path d="M199.91,187.47c-1.73,3-5.6,4.21-8.07,5.11-6.55,2.61-11.28,4.09-13.62-1.85a8,8,0,0,1-.53-2.11c-.38-4.48,4.21-6.71,6.62-8h0c2.84-1.5,4.86-2.47,6.31-3.1a11.78,11.78,0,0,1,4.72-1.28c1.32,0,4.21.29,5.28,5.77A7.87,7.87,0,0,1,199.91,187.47Z" fill="#2f2e41" data-secondary="true"/>
<path d="M200,183.19c0,3.35-2.11,6.05-4.65,6.05s-4.66-2.7-4.66-6.05,2.11-6,4.66-6S200,179.87,200,183.19Z" fill="#2f2e41" data-secondary="true"/>
<ellipse cx="195.32" cy="183.19" rx="4.13" ry="5.33" fill="#fff" opacity="0.2" style="isolation:isolate"/>
<path d="M129.06,200.35l-.68-.21Z" fill="#ffc727"/>
<polygon points="713.1 163.47 713.1 163.47 707.79 163.47 707.79 158.04 685.66 158 685.62 180.88 609.99 180.76 610.03 157.87 587.9 157.83 587.88 163.26 577.25 163.24 577.15 217.35 582.47 217.37 582.47 217.37 587.8 217.39 587.78 222.8 609.91 222.85 609.95 199.96 685.58 200.09 685.56 222.97 707.69 223.01 707.69 217.58 718.32 217.6 718.42 163.49 713.1 163.47" fill="#2f2e41" data-secondary="true"/>
<rect x="566.4" y="179.22" width="64.95" height="22.13" transform="translate(407.55 788.83) rotate(-89.9)" opacity="0.1" style="isolation:isolate"/>
<rect x="664.21" y="179.31" width="64.95" height="22.13" transform="translate(505.09 886.73) rotate(-89.9)" opacity="0.1" style="isolation:isolate"/>
<g opacity="0.45">
<rect x="683.39" y="187.86" width="54.11" height="5.33" transform="translate(518.68 900.63) rotate(-89.9)"/>
</g>
<g opacity="0.45">
<rect x="558.17" y="187.67" width="54.11" height="5.33" transform="translate(393.87 775.22) rotate(-89.9)"/>
</g>
<path d="M647.79,282.72a92.32,92.32,0,1,1,92.32-92.32A92.43,92.43,0,0,1,647.79,282.72Zm0-182.71a90.39,90.39,0,1,0,90.39,90.39A90.5,90.5,0,0,0,647.79,100Z" fill="#ccc"/>
<path d="M749.18,504.81a92.33,92.33,0,1,1,92.33-92.33A92.43,92.43,0,0,1,749.18,504.81Zm0-182.72a90.4,90.4,0,1,0,90.4,90.39A90.49,90.49,0,0,0,749.18,322.09Z" fill="#ccc"/>
<path d="M741,408.52c-.65-2.27-4.36-13.14-13.37-12.63-11.26.65-13.6,9-18.78,12.63-10.12,7.08-34-.57-48.91,14.09s-6.82,35.79,1.46,47.71,25.11,27.54,41.77,20.63c16.17-6.69,17.39-22,24.8-28.65,6.76-6.05,30-12.91,30.17-23.48.11-7-7.09-4.4-9.89-7.26s-.53-6.57-.55-8.43C747.65,419.18,741,408.52,741,408.52Z" fill="#2f2e41" data-secondary="true"/>
<path d="M709.88,446.29l9.47-7.17a12.12,12.12,0,0,0,10.53-.78,11.52,11.52,0,0,0,4.88-9.35L737,427.6a11.42,11.42,0,0,1,2.8,5.68c1.34,6.91-8.19,26.13-20.68,25C709.39,457.45,709.88,446.29,709.88,446.29Z" opacity="0.1" style="isolation:isolate"/>
<path d="M734.59,425.22A11.24,11.24,0,1,1,720,418.9,11.24,11.24,0,0,1,734.59,425.22Z" fill="#3f3d56"/>
<path d="M734.59,425.22A11.24,11.24,0,1,1,720,418.9,11.24,11.24,0,0,1,734.59,425.22Z" opacity="0.1" style="isolation:isolate"/>
<path d="M732.07,426.23A8.53,8.53,0,1,1,721,421.45,8.43,8.43,0,0,1,732,426,1.67,1.67,0,0,0,732.07,426.23Z" fill="#2f2e41" data-secondary="true"/>
<polygon points="810.88 363.3 815.93 370.52 735.16 431.41 726.04 418.31 810.88 363.3" fill="#ccc"/>
<rect x="694.92" y="438.33" width="4.88" height="18.51" transform="translate(-130.67 479.34) rotate(-34.89)" fill="#fff"/>
<polygon points="815.19 353.26 813.57 351.1 809.99 353.8 811.61 355.95 812.81 355.05 814.15 356.83 815.23 356.02 813.89 354.24 815.19 353.26" fill="#2f2e41" data-secondary="true"/>
<polygon points="820.37 349.38 818.75 347.23 815.16 349.92 816.79 352.08 818.01 351.15 819.36 352.94 820.44 352.13 819.09 350.34 820.37 349.38" fill="#2f2e41" data-secondary="true"/>
<polygon points="825.66 348.22 824.3 346.42 825.53 345.5 823.9 343.35 820.32 346.04 821.94 348.2 823.23 347.23 824.58 349.03 825.66 348.22" fill="#2f2e41" data-secondary="true"/>
<polygon points="824.47 371.44 823.49 369.48 822.29 370.08 823.27 372.04 821.93 372.71 823.13 375.13 827.14 373.12 825.94 370.71 824.47 371.44" fill="#2f2e41" data-secondary="true"/>
<polygon points="830.33 368.46 829.31 366.42 828.1 367.02 829.12 369.06 827.71 369.77 828.91 372.18 832.92 370.17 831.72 367.76 830.33 368.46" fill="#2f2e41" data-secondary="true"/>
<polygon points="837.45 364.84 836.1 365.51 835.13 363.58 833.92 364.18 834.89 366.11 833.43 366.84 834.64 369.25 838.65 367.25 837.45 364.84" fill="#2f2e41" data-secondary="true"/>
<path d="M840.54,355.3,835.43,347s-2.85,1.27-7.39-1.32l-16.6,11.93-1.79,4.22,6.19,9.79,4.64.31,18.06-9.54C838.14,357.3,840.54,355.3,840.54,355.3Zm-25,7.18-1.22-2,15.87-9.84,1.22,2Zm3.56,5.74-1.24-2.1,15.87-9.83,1.24,2Z" fill="#2f2e41" data-secondary="true"/>
<path d="M691.28,443.24l17.16-11.56,17.21-11.47L747.21,406l34.53-22.76c11.51-7.58,19.07-12.64,30.65-20.07h0l1.9-7.51-1.81,7.55h0c-11.42,7.75-19,12.64-30.45,20.38l-34.42,22.93-21.69,14-17.27,11.37Z" fill="#2f2e41" data-secondary="true"/>
<path d="M693,445.56l17.16-11.73,17.3-11.64L749,407.64c11.48-7.75,23-15.39,34.51-23.16s19.1-12.82,30.66-20.45h0l5.22-12.1-5,12.19h0c-11.43,7.83-19,12.93-30.49,20.69S760.91,400.35,749.4,408l-21.67,14.33-17.29,11.54Z" fill="#2f2e41" data-secondary="true"/>
<path d="M825.66,348.22l-10.53,16.85h0l-30.36,21.05c-11.44,7.85-22.83,15.79-34.3,23.58l-21.54,14.74-17.22,11.71-17.27,11.64,17.1-11.9,17.14-11.81,21.41-14.88c11.41-7.9,22.93-15.65,34.38-23.48L815,364.92h0Z" fill="#2f2e41" data-secondary="true"/>
<path d="M696.08,450.15l17-12.09,17-12,21.25-15.31c11.37-8,22.82-15.91,34.23-23.87L816,365.63h0l18.63-1.85L816,365.89h0L785.8,387.32c-11.37,8-22.72,16-34.15,24L730.4,426.4l-17.13,11.92Z" fill="#2f2e41" data-secondary="true"/>
<path d="M829.07,367.21H816c-11.18,8.17-18.53,13.58-29.75,21.69l-33.69,24.21L731.63,428.5l-16.85,12-17,12,16.84-12.22,16.85-12.12,20.84-15.52L786,388.5c11.28-8,18.59-13.48,29.94-21.43h0Z" fill="#2f2e41" data-secondary="true"/>
<path d="M699.31,454.67l16.63-12.25,16.7-12.17,20.52-15.6,33.52-24.17c11.16-8,18.41-13.5,29.65-21.48h0l7.26,1.71-7.28-1.6h0c-11.08,8.19-18.3,13.66-29.48,21.77L753.44,415.2l-20.53,15.41-16.84,12.06Z" fill="#2f2e41" data-secondary="true"/>
<path d="M407.23,405.05v-10h72.21v12.24S436.52,436.76,407.23,405.05Z" fill="#f4a48e"/>
<path d="M390.65,373s5.09,38,52.05,40.65c0,0,29,.62,45.05-25.54a55.79,55.79,0,0,0,7.62-22.46c1.63-13.3,4.18-41.08-1-52.59L428.5,286.34l-28.39,7.6-11.65,27S384.82,336.57,390.65,373Z" fill="#f9b499"/>
<ellipse cx="383.44" cy="351.36" rx="14.12" ry="22.88" transform="translate(-31.44 37.75) rotate(-5.41)" fill="#f9b499"/>
<ellipse cx="503.58" cy="351.3" rx="23.3" ry="14.38" transform="translate(83.2 798.82) rotate(-81.69)" fill="#f9b499"/>
<path d="M471.57,304.63c0,8.94,9.3,10.73,9.3,10.73C465.5,318.22,446,302.85,446,302.85a20.16,20.16,0,0,0,9.83,11.08c-38.6,2.14-52.55-17.16-52.55-17.16-2.14,20-12.51,24.67-12.51,24.67s-.26-28.11,24.2-44.24a54.53,54.53,0,0,1,27.86-8.69c17.78-.72,48.05,4.28,58.4,44C501.24,312.5,492,318.22,471.57,304.63Z" opacity="0.2"/>
<path d="M471.57,304.63c0,8.94,9.3,10.73,9.3,10.73C465.5,318.22,446,302.85,446,302.85a20.16,20.16,0,0,0,9.83,11.08c-38.6,2.14-52.55-17.16-52.55-17.16-2.14,20-12.51,24.67-12.51,24.67s-.26-28.11,24.2-44.24a54.53,54.53,0,0,1,27.86-8.69c17.78-.72,48.05,4.28,58.4,44C501.24,312.5,492,318.22,471.57,304.63Z" fill="#2f2e41" data-secondary="true"/>
</svg>