 <!DOCTYPE svg PUBLIC "-//W3C//DTD SVG 1.1//EN" "http://www.w3.org/Graphics/SVG/1.1/DTD/svg11.dtd">
<svg id="bc12acb9-2bc2-4959-abbb-948df2f80af3" data-name="Layer 1" xmlns="http://www.w3.org/2000/svg" xmlns:xlink="http://www.w3.org/1999/xlink" width="865.76" height="682.89" viewBox="0 0 865.76 682.89">
<defs>
<clipPath id="e21d5824-197d-4108-95e2-cf26ad34b20e">
<path id="a6ebaa31-b9f1-4cfa-9609-2a898709a8d5" data-name="SVGID" d="M435.75,581.66c-.66-9.54-3-39.66-8-64.6a81,81,0,0,0-5.71-17.77c-2.85-6.2-6.45-16.6-4.63-26.6a178.7,178.7,0,0,0-.1-22.53,4.27,4.27,0,0,0-4.35-4l-30.89.69a43.57,43.57,0,0,1-26.55-8c-11.82-8.56-21.93-25.33-4.74-57,0,0,28.5-9.14,76.69,4.34,0,0,36,12,38.83,24.77,0,0,5.69,10,11.39,93,0,0,1.9,59.81-3.8,81.17,0,0-.47,7.12-22.31,3.32l-12.67-3.07A4.18,4.18,0,0,1,435.75,581.66Z" fill="#2f2e41" data-secondary="true"/>
</clipPath>
<clipPath id="ee1a738d-8305-47d0-8c0b-d49f966c375e">
<path id="f6bf4351-8a51-4d0d-9be7-4fbf3072fceb" data-name="SVGID" d="M349.93,331.71s-2.69,11.19-2.51,14.38l10.32,1.39s9.88,2.87,22.78,15.46a1.7,1.7,0,0,0,1.13-2,.49.49,0,0,1,.51-.58c.91,0,2.28-.2,1.39-2.32l-5-6.25a.12.12,0,0,1,.16-.18c1.43,1,4.5,2.84,6.4,1.65,0,0,1.28-1.44-2.87-3.35,0,0-5.41-3.66-7.8-5.73a16.67,16.67,0,0,0-7-3.39,29.06,29.06,0,0,1-5.95-1.6C357.67,337.63,352.28,335,349.93,331.71Z" fill="#f9b499"/>
</clipPath>
<clipPath id="a1636474-fb40-4c98-b71b-2a0fed0a8830">
<path id="fcb427b2-f35f-40c6-9c2f-2fa97bc218f9" data-name="SVGID" d="M277.11,366.47S272,403.1,318.23,404.12l42.54-.61s15.74-7.77,15.54-38.85l-30.88-5.93s-5.52-3.07-15.54,1.43c0,0-13.29,6.34-21.47,9.41C308.42,369.57,291.72,377.76,277.11,366.47Z" fill="#2f2e41" data-secondary="true"/>
</clipPath>
<clipPath id="bf533cf5-073d-4491-9a17-bafc7ed6c524">
<path id="b8420da6-dc9f-4624-b63c-4651f8cdb20b" data-name="SVGID" d="M583.07,326a7.51,7.51,0,0,0-.73,1.26c-9.27,20.07-19.84,25.68-19.84,25.68-19.67,11.73-36,14.44-42,15.05a13.59,13.59,0,0,1-4.67-.33c-34.85-8.41-47.68-43.18-47.68-43.18s29.25-.86,45.32-21.79l.56,1.17-7.65,47.77,52.84-20.19.12-.56a24.49,24.49,0,0,1,2.26-6.14,8.76,8.76,0,0,0,.83-6.72l-.29-.55c-.93-1.84-3.72-7.73-1.2-8.05,0,0,1.11-.17,2.59,1.36s3.52,5.07,5.05,12.56a.18.18,0,0,0,.36,0c-.13-2.45-1.42-8.61-2.32-14.68,0,0-1.76-6.34,2.3-4.58,0,0-1.94-6.69.7-6,0,0,1.95.94,4.46,7a57.58,57.58,0,0,1,2.59,7.45c.44,1.65,1,3.68,1.5,5.59a1.15,1.15,0,0,0,2.18.13,19,19,0,0,0,1.43-8.19s-2-10.54-.18-11.1c0,0,1.41-2.12,5.46,12.33C587.05,311.23,588.56,317.94,583.07,326Z" fill="#f9b499"/>
</clipPath>
<style xmlns="http://www.w3.org/1999/xhtml">*, ::after, ::before { box-sizing: border-box; }
img, svg { vertical-align: middle; }
</style>
<style xmlns="http://www.w3.org/1999/xhtml">*, body, html { -webkit-font-smoothing: antialiased; }
img, svg { max-width: 100%; }
</style>
</defs>
<path d="M477,557s21.51.33,26.22-.51c0,0,1.48,22.58,1.58,27,0,0-16.22,1-31.05.72A125.66,125.66,0,0,0,477,557Z" fill="#ccc"/>
<rect x="518.74" y="87.1" width="5.77" height="436.4" fill="#e0e0e0"/>
<path d="M258.11,368.78s-35-121.46,109.8-133.73c0,0,127.58-16.14,154.28,118l32.86,97.77s-46.39,2.2-180.87-1.88c0,0-1.65-25.91-19.6-43.52l-37.9-37.9S279,347.31,258.11,368.78Z" fill="#b2b2b2"/>
<path d="M559.49,455.13l-65.93-64.78s-4.05-34.41,28.63-37.31L567,382s45.41,29.81,47.15,44c0,0-5.44-11.76-18.79-14.07a26.19,26.19,0,0,0-16.31,2.56C570.58,418.74,557.94,429.51,559.49,455.13Z" fill="#ccc"/>
<path d="M564.47,521c-20.48,0-37.07-9.7-37.07-21.66A13.55,13.55,0,0,1,529,493l-.18-.14h-14.9l-.05,0a13.64,13.64,0,0,1,1.67,6.44c0,12-16.6,21.66-37.07,21.66H478v4.69h87.36V521h-.9Z" fill="#e0e0e0"/>
<path d="M374.18,448.93s113.63,2.05,180.87,1.88l4.44,4.32s-3.76-35.2,25.36-43.66c0,0,19.82-3.9,29.31,14.47,0,0-12.94-20.78-36.9-4.8,0,0-16.11,7.59-14,40l-2.07,86.09S539.31,557.68,477,557c0,0-63.88-2.47-101.18-9.34l-.4-90.07A45.62,45.62,0,0,0,374.18,448.93Z" fill="#b2b2b2"/>
<path d="M380.8,460.8s98.76,11,163.79,4.91l-.62,6.75S452.57,477.36,380.8,460.8Z" fill="#ccc"/>
<path d="M463.21,371.18s65.3,15.12,78.59,32.21,10.44,30.85,10.44,30.85l-7,146.09a5.84,5.84,0,0,1-1.26,3.4c-3,3.68-12.5,10.67-38.45.78a1.16,1.16,0,0,1-.74-1,617.51,617.51,0,0,0-5.67-62.85l-6.65-34.18s-6.17-11.86,5.23-43.19l-49.37-12.34L427.5,386.21S439.67,372.68,463.21,371.18Z" fill="#2f2e41" data-secondary="true"/>
<path d="M463.21,371.18s65.3,15.12,78.59,32.21,10.44,30.85,10.44,30.85l-7,146.09a5.84,5.84,0,0,1-1.26,3.4c-3,3.68-12.5,10.67-38.45.78a1.16,1.16,0,0,1-.74-1,617.51,617.51,0,0,0-5.67-62.85l-6.65-34.18s-6.17-11.86,5.23-43.19l-49.37-12.34L427.5,386.21S439.67,372.68,463.21,371.18Z" opacity="0.2"/>
<path id="b0a429e0-4aad-4ac9-9429-4f56cbdda94a" data-name="SVGID" d="M435.75,581.66c-.66-9.54-3-39.66-8-64.6a81,81,0,0,0-5.71-17.77c-2.85-6.2-6.45-16.6-4.63-26.6a178.7,178.7,0,0,0-.1-22.53,4.27,4.27,0,0,0-4.35-4l-30.89.69a43.57,43.57,0,0,1-26.55-8c-11.82-8.56-21.93-25.33-4.74-57,0,0,28.5-9.14,76.69,4.34,0,0,36,12,38.83,24.77,0,0,5.69,10,11.39,93,0,0,1.9,59.81-3.8,81.17,0,0-.47,7.12-22.31,3.32l-12.67-3.07A4.18,4.18,0,0,1,435.75,581.66Z" fill="#2f2e41" data-secondary="true"/>
<g clip-path="url(#e21d5824-197d-4108-95e2-cf26ad34b20e)">
<path d="M343.69,425.06,418,434.63a10.27,10.27,0,0,1,8.63,7.6c4.66,18,8.91,37.82,12.3,59.2a632.06,632.06,0,0,1,7.63,85.62" fill="#2f2e41" opacity="0.2" data-secondary="true"/>
</g>
<rect x="240.25" y="43.66" width="125.45" height="146.71" fill="#ccc"/>
<rect x="243.75" y="46.96" width="119.41" height="139.88" fill="#fff"/>
<path d="M308.76,98.68c-4.06.52-8.44-4-10.21-8a22.18,22.18,0,0,1-1.21-12.81,52.39,52.39,0,0,1,4.16-12.35,17,17,0,0,1,8,13c.54,6.88-1.69,13.41-.7,20.24" fill="#2f2e41" data-secondary="true"/>
<path d="M322.46,106c-4-4-9.68-5.6-14.07-9.09l-.11-.06c-.35,5-.25,10,2.14,14.42a18,18,0,0,0,8.4,7.36,53.42,53.42,0,0,0,10.85,3.27C328.24,116.14,326.64,110.12,322.46,106Z" fill="#2f2e41" data-secondary="true"/>
<path d="M341,95.06c-2.32-2.06-4.86-4.22-7.94-4.55a15.21,15.21,0,0,0-5.56.83l-14.09,4-4.68,2.85c4,2,7.34,5.09,11.11,7.5s8.23,4.24,12.63,3.43c3.45-.64,6.4-2.81,9-5.14,1.16-1,2.35-2.24,2.51-3.78C344.19,98.11,342.51,96.42,341,95.06Z" fill="#2f2e41" data-secondary="true"/>
<g opacity="0.3">
<path d="M308.88,98.59a14.16,14.16,0,0,0,18.35-7.09"/>
</g>
<path d="M330.19,73.41a3.29,3.29,0,0,0-2.15-.84,13.35,13.35,0,0,0-5.33.55,14.52,14.52,0,0,1-4.29,1.11c-.89,0-1.77-.26-2.66-.29a6.61,6.61,0,0,0-5.09,2.55,13.61,13.61,0,0,0-2.47,5.31c-1.19,4.49-1.62,12.2-.66,16.75,4,.5,8.15-1.07,12.33-2.53,3.42-1.19,7.73-3.66,9.27-6.94a14.11,14.11,0,0,0,1-5c.2-2.6.39-5.19.59-7.78A3.71,3.71,0,0,0,330.19,73.41Z" fill="#2f2e41" data-secondary="true"/>
<path d="M297.1,167.88a3,3,0,0,1-.23-.72c-.13-.54-.31-1.24-.54-2.12-.45-1.83-1.1-4.49-1.81-7.8s-1.47-7.28-2-11.73a78,78,0,0,1-.5-14.57,65.54,65.54,0,0,1,1-7.5,53.75,53.75,0,0,1,1.83-6.8,38.8,38.8,0,0,1,5.54-10.54,30.28,30.28,0,0,1,5.58-5.73,18.26,18.26,0,0,1,1.78-1.27,4.71,4.71,0,0,1,.65-.4,3.94,3.94,0,0,1-.59.49c-.38.32-1,.7-1.71,1.33a32.55,32.55,0,0,0-5.45,5.8,39.23,39.23,0,0,0-5.37,10.48,54.41,54.41,0,0,0-1.79,6.74,66.78,66.78,0,0,0-1,7.44,78.62,78.62,0,0,0,.46,14.47c.52,4.44,1.25,8.4,1.91,11.71s1.25,6,1.64,7.84c.19.89.33,1.6.45,2.13A5,5,0,0,1,297.1,167.88Z" fill="#455a64"/>
<path d="M290,120.22a28,28,0,0,0-7.58-6.08,43.54,43.54,0,0,1-8-5.6,29.78,29.78,0,0,0-.36,11.93,15.56,15.56,0,0,0,6.26,9.9c3.34,2.21,8.48,3.69,11.84,1.51v-.17C292.68,128,292.07,122.77,290,120.22Z" fill="#2f2e41" data-secondary="true"/>
<path d="M335.19,108.23a4.64,4.64,0,0,1-1.07.53,10.39,10.39,0,0,1-1.35.38,16.41,16.41,0,0,1-1.83.25,25.66,25.66,0,0,1-10.45-2,31.06,31.06,0,0,1-9.14-5.45c-.54-.42-.94-.9-1.34-1.27a8.72,8.72,0,0,1-.92-1,5,5,0,0,1-.7-1c.08-.07,1.11,1.27,3.2,3a34.09,34.09,0,0,0,9.09,5.25A27.34,27.34,0,0,0,331,109c.67-.07,1.28-.06,1.8-.17a13.29,13.29,0,0,0,1.34-.28A5.89,5.89,0,0,1,335.19,108.23Z" fill="#263238"/>
<path d="M327.78,91.14a5.7,5.7,0,0,1-.59.58c-.4.35-1,.84-1.8,1.41a28.74,28.74,0,0,1-6.59,3.61,31.23,31.23,0,0,1-7.31,1.78c-.95.11-1.73.18-2.27.2a2.31,2.31,0,0,1-.83,0,25.94,25.94,0,0,1,3.05-.54,38.88,38.88,0,0,0,7.17-1.9,35.79,35.79,0,0,0,6.58-3.43A26.34,26.34,0,0,1,327.78,91.14Z" fill="#263238"/>
<path d="M308.39,98.7a5,5,0,0,1-.32-.79,21.84,21.84,0,0,1-.58-2.25,28.45,28.45,0,0,1,.89-15.14c.32-.92.62-1.66.85-2.15a3,3,0,0,1,.41-.75c.08,0-.36,1.15-.91,3a33.1,33.1,0,0,0-.88,15C308.16,97.51,308.47,98.68,308.39,98.7Z" fill="#263238"/>
<path d="M292.21,131.88c-.08,0-.53-1.07-1.69-2.58a32.65,32.65,0,0,0-5.24-5.27,35.8,35.8,0,0,1-5.65-5,11.84,11.84,0,0,1-1.32-1.89,2.12,2.12,0,0,1-.33-.77c.08,0,.62,1,1.92,2.41a46.08,46.08,0,0,0,5.71,4.82,27.19,27.19,0,0,1,5.2,5.46,12.74,12.74,0,0,1,1.14,2A2.19,2.19,0,0,1,292.21,131.88Z" fill="#263238"/>
<path d="M320.39,129.61a17.37,17.37,0,0,0-6.83-1.94c-3.09-.32-6.54-.07-8.77,2.09a8.67,8.67,0,0,0-2.21,6.94c.21,2.5.9,4.55,2.62,5.44a4.89,4.89,0,0,0,3.15,4,10.2,10.2,0,0,0,5.28.44,14.85,14.85,0,0,0,8.21-3.41,8.62,8.62,0,0,0,2.89-8.11A8.87,8.87,0,0,0,320.39,129.61Z" fill="#e0e0e0"/>
<path d="M270,80.4a17.16,17.16,0,0,0-1.54,6.94c-.14,3.1.3,6.53,2.59,8.63a8.63,8.63,0,0,0,7,1.81c2.49-.35,4.5-1.16,5.28-2.93a4.88,4.88,0,0,0,3.81-3.37,10.35,10.35,0,0,0,.13-5.3,15,15,0,0,0-3.87-8,8.67,8.67,0,0,0-8.27-2.41A8.87,8.87,0,0,0,270,80.4Z" fill="#e0e0e0"/>
<path d="M315,134.8a9.15,9.15,0,0,1-1.31.93,14.93,14.93,0,0,0-1.54,1.06c-.54.44-1.28.9-2,1.49s-1.5,1.2-2.29,1.94-1.63,1.52-2.49,2.38a48.3,48.3,0,0,0-8.95,12.9c-.5,1.1-1,2.15-1.36,3.16s-.73,2-1,2.83-.5,1.67-.7,2.37-.35,1.31-.45,1.82a11.39,11.39,0,0,1-.41,1.55,8.67,8.67,0,0,1,.21-1.59,16.82,16.82,0,0,1,.37-1.85c.18-.71.34-1.53.63-2.41s.56-1.86,1-2.87.84-2.09,1.33-3.22a51.68,51.68,0,0,1,4-6.91,50.35,50.35,0,0,1,5-6.09c.88-.85,1.7-1.68,2.54-2.37s1.62-1.34,2.36-1.9,1.43-1,2-1.44a18.5,18.5,0,0,1,1.59-1A9.72,9.72,0,0,1,315,134.8Z" fill="#263238"/>
<path d="M279.55,90.12a5.58,5.58,0,0,1,1.08.57c.41.23.81.49,1.2.76s1,.67,1.54,1.11A34.74,34.74,0,0,1,287,95.85a35.5,35.5,0,0,1,6.74,10,33.8,33.8,0,0,1,1.67,4.64c.21.67.33,1.29.46,1.83a13.94,13.94,0,0,1,.26,1.41,5,5,0,0,1,.12,1.21c-.1,0-.36-1.7-1.19-4.35a39.07,39.07,0,0,0-1.76-4.54,41.38,41.38,0,0,0-2.93-5.19,40.63,40.63,0,0,0-3.72-4.66,38.53,38.53,0,0,0-3.55-3.33C281,91.09,279.5,90.2,279.55,90.12Z" fill="#263238"/>
<rect x="130.14" y="43.66" width="80.61" height="80.61" fill="#ccc"/>
<rect x="134.9" y="48.42" width="71.08" height="71.08" fill="#fff"/>
<path d="M151.23,81.29c-5,5.54-7,13.24-7,20.68a50.52,50.52,0,0,1,17.93-24.21c3.16-2.29,7.11-4,10.82-3.77C165.41,72.83,156.36,75.6,151.23,81.29Z" fill="#0071f2" data-primary="true"/>
<path d="M162.65,70.29a14.77,14.77,0,0,0-7.21,2.48c-3.38,2-6.6,4.61-8.25,8.19a27,27,0,0,1,24.21-7.77C168.7,71.61,165.77,70.29,162.65,70.29Z" fill="#0071f2" data-primary="true"/>
<path d="M170.39,62a5,5,0,0,0-2.31,6.69,5.32,5.32,0,0,0,.73,1.09,22.43,22.43,0,0,0,2.91,3.17c1.21-4.1,2.62-8.37,3.84-12.47A13.38,13.38,0,0,0,170.39,62Z" fill="#0071f2" data-primary="true"/>
<path d="M179.08,62.15A12.46,12.46,0,0,0,174,67c-1.11,2.1-1.7,4.81-.6,6.93a178.1,178.1,0,0,1,12.34-14.42A37.57,37.57,0,0,0,179.08,62.15Z" fill="#0071f2" data-primary="true"/>
<path d="M186,69.78a14.31,14.31,0,0,0-12.5,4.51,11.94,11.94,0,0,1,6.6-.81,157.65,157.65,0,0,1,16.57,4.21A14.3,14.3,0,0,0,186,69.78Z" fill="#0071f2" data-primary="true"/>
<path d="M194.67,111.81l0-.11-.1-.33c-.09-.29-.2-.72-.38-1.27-.35-1.1-.89-2.68-1.65-4.6A114.84,114.84,0,0,0,185.37,91a112.15,112.15,0,0,0-8.94-13.42A31.15,31.15,0,0,0,173.15,74a9.91,9.91,0,0,0-1-.82l-.3-.18-.09-.07h.1l.31.16a8.3,8.3,0,0,1,1.08.79,28.35,28.35,0,0,1,3.35,3.58,104.89,104.89,0,0,1,9,13.4,107.66,107.66,0,0,1,7.07,14.53c.74,1.93,1.27,3.52,1.58,4.63.17.56.27,1,.35,1.29l.08.34A.47.47,0,0,0,194.67,111.81Z" fill="#2f2e41" data-secondary="true"/>
<path d="M174,74c-4.33,0-8.33,3-10.11,7a17.74,17.74,0,0,0-.19,12.71A39.65,39.65,0,0,0,170.14,105a95.27,95.27,0,0,0,4.44-14.6A37.2,37.2,0,0,0,174,74Z" fill="#0071f2" data-primary="true"/>
<g opacity="0.2">
<path d="M151.23,81.19c-5,5.54-7,13.24-7,20.68a50.47,50.47,0,0,1,17.93-24.21c3.16-2.29,7.11-4,10.82-3.77C165.41,72.73,156.36,75.5,151.23,81.19Z"/>
</g>
<g opacity="0.2">
<path d="M162.65,70.19a14.67,14.67,0,0,0-7.21,2.48c-3.38,2-6.6,4.61-8.25,8.19a27,27,0,0,1,24.21-7.77C168.7,71.51,165.77,70.19,162.65,70.19Z"/>
</g>
<g opacity="0.2">
<path d="M170.39,61.88a5,5,0,0,0-2.31,6.68,5.39,5.39,0,0,0,.73,1.1,23.58,23.58,0,0,0,2.91,3.17c1.21-4.1,2.62-8.37,3.84-12.47A13.21,13.21,0,0,0,170.39,61.88Z"/>
</g>
<g opacity="0.2">
<path d="M179.08,62.05a12.4,12.4,0,0,0-5.1,4.87c-1.11,2.1-1.7,4.81-.6,6.93a174.73,174.73,0,0,1,12.34-14.42A36.1,36.1,0,0,0,179.08,62.05Z"/>
</g>
<g opacity="0.2">
<path d="M186,69.68a14.26,14.26,0,0,0-12.5,4.51,11.77,11.77,0,0,1,6.6-.81,155.22,155.22,0,0,1,16.57,4.21A14.28,14.28,0,0,0,186,69.68Z"/>
</g>
<g opacity="0.2">
<path d="M174,73.89c-4.33,0-8.33,3-10.11,7a17.74,17.74,0,0,0-.19,12.71,39.92,39.92,0,0,0,6.42,11.25,95.61,95.61,0,0,0,4.44-14.6A37.19,37.19,0,0,0,174,73.89Z"/>
</g>
<rect x="395.19" y="43.66" width="80.61" height="80.61" fill="#ccc"/>
<rect x="399.95" y="48.42" width="71.08" height="71.08" fill="#fff"/>
<path d="M438.58,79.81c.17-1.68-1.63-3.33-3.21-3.93a9.11,9.11,0,0,0-5,0A25.44,25.44,0,0,0,411.29,95.8a122.72,122.72,0,0,1,13.53-5.73l-.79.22a15.78,15.78,0,0,0,10.68-7.78,8.47,8.47,0,0,1,1.46-2.27,2.13,2.13,0,0,1,2.41-.47" fill="#0071f2" data-primary="true"/>
<path d="M438.49,79.84a20.52,20.52,0,0,1,14.93-3.35,17.88,17.88,0,0,1,12.4,8.8,15.85,15.85,0,0,1,.08,15c-2.42-5-5-10.24-9.49-13.52a8.32,8.32,0,0,1-2.84-2.63c-.69-1.35-.4-3-1-4.4-.73-1.72-2.72-2.22-4.58-2.32s-7.25,1.62-9.51,2.44" fill="#0071f2" data-primary="true"/>
<path d="M438.37,79.76c4.47-1.32,9.51.86,12.55,4.2A22,22,0,0,1,456,96.29a62.37,62.37,0,0,1-.36,13.52,56,56,0,0,1-7.68-17c-.72-2.74-1.24-5.57-2.54-8.09a10,10,0,0,0-7.08-4.91" fill="#0071f2" data-primary="true"/>
<path d="M438.22,79.86c3.57-1.65,5.58-5.38,6-9.28A11.81,11.81,0,0,0,440,60.15a12.61,12.61,0,0,0-3.33,13.19c.75,2.15,2.13,4.3,1.61,6.52" fill="#0071f2" data-primary="true"/>
<path d="M440.27,80.06a40.54,40.54,0,0,0-4.21-6.39,13.49,13.49,0,0,0-6.25-4.31c-3.3-1-6.83-.2-10.13.78a79,79,0,0,0-11.24,4.28,22.3,22.3,0,0,0,14.95.27,16.7,16.7,0,0,1,7.6-.45c3.22.37,7.24,3.34,9.33,5.82" fill="#0071f2" data-primary="true"/>
<path d="M427.46,114.5a7.62,7.62,0,0,1,.22-1.42c.18-.9.46-2.21.83-3.81.74-3.22,1.84-7.64,3.31-12.46a125.28,125.28,0,0,1,4.37-12.13c.65-1.51,1.2-2.73,1.61-3.56a9,9,0,0,1,.68-1.26,8.7,8.7,0,0,1-.5,1.35c-.35.85-.85,2.08-1.45,3.61-1.21,3.06-2.74,7.34-4.21,12.15s-2.62,9.2-3.45,12.38l-1,3.78A9,9,0,0,1,427.46,114.5Z" fill="#2f2e41" data-secondary="true"/>
<path d="M655.76,45.67h-43.3s-40.79,76.39-40.79,76.61c0,3.45,28,6.25,62.44,6.25s62.44-2.8,62.44-6.25C696.55,122.06,655.76,45.67,655.76,45.67Z" fill="#f4c389"/>
<path d="M696.55,122.28c0,1.77-7.34,3.37-19.15,4.5-3.1.3-6.51.57-10.16.79-9.6.61-21,1-33.13,1-.78,0-1.57,0-2.34,0-8,0-15.54-.2-22.46-.5-22.14-1-37.64-3.17-37.64-5.74,0-.22,40.8-76.61,40.8-76.61h43.29S696.55,122.06,696.55,122.28Z" fill="#ccc"/>
<polygon points="636.99 180.13 488.46 180.13 488.46 173.87 631.23 173.87 631.23 128.53 636.99 128.53 636.99 180.13" fill="#e0e0e0"/>
<circle cx="488.46" cy="177" r="10.46" fill="#e0e0e0"/>
<circle cx="521.41" cy="87.23" r="10.46" fill="#e0e0e0"/>
<path d="M344.43,572.22H369.8a0,0,0,0,1,0,0v20.61a12.68,12.68,0,0,1-12.68,12.68h0a12.68,12.68,0,0,1-12.68-12.68V572.22a0,0,0,0,1,0,0Z" fill="#b2b2b2"/>
<path d="M271,526.24h25.37a0,0,0,0,1,0,0v20.61a12.68,12.68,0,0,1-12.68,12.68h0A12.68,12.68,0,0,1,271,546.86V526.24a0,0,0,0,1,0,0Z" fill="#b2b2b2"/>
<path d="M560.59,572.75H586a0,0,0,0,1,0,0v20.61A12.68,12.68,0,0,1,573.27,606h0a12.68,12.68,0,0,1-12.68-12.68V572.75a0,0,0,0,1,0,0Z" fill="#b2b2b2"/>
<path d="M433.24,554.29c-32.59-2.7-57.47-6.65-57.47-6.65l-.4-90.07c-3.26-40.34-20.79-52.16-20.79-52.16l-37.9-37.9c-42-18-57.68-3.53-63.48,8.4a34.52,34.52,0,0,0-3.36,15.1V507.29c0,.45,0,.89,0,1.33a36.51,36.51,0,0,0,14,26.51l46.89,37.12c8.22,5.63,19.26,5.16,19.26,5.16l22.55.24,82.61,1.67Z" fill="#ccc"/>
<path d="M545.32,577.76l56.23,0c18.34-.82,17.93-12.23,17.93-12.23l.41-56.65c1.63-64.79-3.26-76.61-3.26-76.61-1.75-9-9-13.72-14.4-16a23.35,23.35,0,0,0-11.91-1.7c-28.88,3.45-27.08,40.53-27.08,40.53l-1.89,85.32a9.72,9.72,0,0,1-7,9.1c-2.61.77-4.84,1.33-7.68,2Z" fill="#ccc"/>
<path d="M316.87,510l2.82-67.65s.47-23.13,24.78-27.71c0,0,11.63-2.12,19.91,5.81,0,0-6.35-12.68-26.08-7.4,0,0-22,6.34-22.72,30.13C315.58,443.18,311.12,487.33,316.87,510Z" fill="#b2b2b2"/>
<path d="M506.43,584.93s-2.22,13.87,1.17,18.36a25.83,25.83,0,0,1,2.47,3.75,98.23,98.23,0,0,1,4.54,10.73c.31.89.61,1.8.85,2.71.81,3.13,6.78,17.59,33.48,18.24,0,0,25.63,1.68,21.86-16.78l-44.24-15.23a24.52,24.52,0,0,1-14.37-13.15l-3.44-7.7Z" fill="#2f2e41" data-secondary="true"/>
<path d="M508.73,585.56s-2.15,6.54,4.17,17.49a44.1,44.1,0,0,1,2.35,4.78c2.49,6,10.38,20.93,27,21.42,0,0,16.75,2,25.55-2.53a5.54,5.54,0,0,0,3-4.78,21.47,21.47,0,0,0-8.27-17.34c-5.28-4.18-16.8-14-18.59-20.87C543.94,583.73,537.86,594.55,508.73,585.56Z" fill="#0071f2" data-primary="true"/>
<path d="M535.59,602.88s4.69-6.61,15.78-4.27" fill="none" stroke="#fff" stroke-linecap="round" stroke-linejoin="round" stroke-width="2"/>
<path d="M529.2,597.76s5.75-6.82,16.62-4.48" fill="none" stroke="#fff" stroke-linecap="round" stroke-linejoin="round" stroke-width="2"/>
<path d="M437.82,585.39s-3.84,13.88-.45,18.37a25,25,0,0,1,2.46,3.75,94.39,94.39,0,0,1,4.54,10.73c.32.89.62,1.8.85,2.71.82,3.13,6.79,17.59,33.49,18.24,0,0,25.63,1.68,21.86-16.78l-44.24-15.23A24.52,24.52,0,0,1,442,594l-3.44-7.7Z" fill="#2f2e41" data-secondary="true"/>
<path d="M519.4,283.82l.41-4a3.55,3.55,0,0,1,3-3.2c.52-.07,1.1-.16,1.75-.29A32.6,32.6,0,0,0,539,269.43c7.09-5.81,24.31-17.49,36.65-5.88a.82.82,0,0,0,1.37-.46c.46-2.65,1.86-7.94,6-11.34,0,0,12.45-9.72,18.23-18a1.13,1.13,0,0,1,1.56-.29l1.52,1-22.72,29.73-9,3.79Z" fill="#e6e7e8"/>
<path d="M562.13,317.43l-2,9.57-.93,4.4-52.84,20.19L514,303.82l3.09-19.28,55.5-17.35-9.09,43.55c-1.48-1.53-2.59-1.36-2.59-1.36C558.41,309.7,561.2,315.59,562.13,317.43Z" fill="#2f2e41" data-secondary="true"/>
<polygon points="572.61 267.19 581.59 263.49 569.26 326.2 559.22 331.4 572.61 267.19" fill="#2f2e41" data-secondary="true"/>
<polygon points="572.61 267.19 581.59 263.49 569.26 326.2 559.22 331.4 572.61 267.19" opacity="0.2"/>
<path d="M581.59,263.49l22.68-29s0,0,0,0L580,324.73l-11.14,3.49Z" fill="#2f2e41" data-secondary="true"/>
<path d="M464.9,315.81l3.24,8.63s33.12-.35,49.68-27.48c0,0-16.56-31.59-30-44.87Z" fill="#0071f2" data-primary="true"/>
<path d="M464.16,313.45l3.58,10.13s13-42.64,20.13-71.49Z" opacity="0.2"/>
<path d="M563.52,310.74l-1.39,6.69c-.93-1.84-3.72-7.73-1.2-8.05C560.93,309.38,562,309.21,563.52,310.74Z" fill="#f7931e"/>
<path d="M335.31,237.41S305,244.81,278.58,266l17.62,17.27,43.34-8.81Z" fill="#0071f2" data-primary="true"/>
<path d="M390,194.36s-.4,9.11,2.81,8.71c0,0,2,1.37.82-7.81C393.66,195.26,392.49,194.88,390,194.36Z" fill="#2f2e41" data-secondary="true"/>
<path d="M432,226.26s35.7,4.22,55.9,25.83L451,354.32a5.41,5.41,0,0,0,.16,4.07l2.16,4.81a4.07,4.07,0,0,0,3.6,2.37c2.36.07,5.66,1,6.26,5.61,0,0-22.55,1.41-35.71,15,0,0-37.58-12.09-76.69-4.34l-3.17-37.35L335.31,237.41s23.25-12,50-14.79C385.34,222.62,406,240.11,432,226.26Z" fill="#0071f2" data-primary="true"/>
<path d="M438.94,585.43s-2.59,7.14,3.72,18.09A40.71,40.71,0,0,1,445,608.3c2.5,6,10.39,20.93,27,21.42,0,0,16.74,2,25.55-2.53a5.54,5.54,0,0,0,3-4.78,21.47,21.47,0,0,0-8.27-17.34c-5.28-4.18-16.81-14-18.6-20.87C473.7,584.2,468.07,594.42,438.94,585.43Z" fill="#0071f2" data-primary="true"/>
<path d="M465.46,602.88s4.69-6.61,15.78-4.27" fill="none" stroke="#fff" stroke-linecap="round" stroke-linejoin="round" stroke-width="2"/>
<path d="M459.07,597.76s5.75-6.82,16.62-4.48" fill="none" stroke="#fff" stroke-linecap="round" stroke-linejoin="round" stroke-width="2"/>
<path d="M362.44,349.34s19.77,10.93,22.82,21.26c0,0-.46-.44-1.32-1.11a28.22,28.22,0,0,0-7.68-4.31,29,29,0,0,0-4.95-1.37l-5.16-1S368.5,356.67,362.44,349.34Z" fill="#f9b499"/>
<path d="M392.35,195.17s3.21,19-7,27.45c0,0,2.82,22.54,28.19,23.6,0,0,16.2.71,18.32-14.8l.35-11.27-37.35-25.37Z" fill="#f9b499"/>
<path d="M432.11,221.7l-.14,4.56s-15.28,9.35-25.51-4.2C406.46,222.06,417.48,232.87,432.11,221.7Z" fill="#f7a48b"/>
<ellipse cx="420.78" cy="188.89" rx="37.95" ry="26.06" transform="matrix(0.1, -1, 1, 0.1, 191.23, 588.94)" fill="#f9b499"/>
<path d="M390.06,180.91S383.34,142.4,408,138.17c0,0,12.45-6.1,23.72.47,0,0,6.11,6.11,18.32,10.81,0,0,12.22,5.87,9.87,17.14,0,0,1.17,13.39-5.17,13.39,0,0-6.13-.29-7.77,3.7,0,0-1.86-9.8-4.44-10.51,0,0-4-2.11-4.7-6.34,0,0-2.12-2.58-4.93-1.17,0,0-2.59,1.64-5.17-2.35,0,0-3.53-5.88-9.63-3.53,0,0-4.23,0-4.94,3.76,0,0-1.17,3.76-7,4.93a6.6,6.6,0,0,0-5.43,6A26.52,26.52,0,0,1,400,179c-.82,3.08-2.1,7.82-2.56,9.21C397.44,188.2,397.24,180.9,390.06,180.91Z" fill="#2f2e41" data-secondary="true"/>
<ellipse cx="391.86" cy="188.09" rx="5.46" ry="7.4" transform="translate(-34.02 101.15) rotate(-14.1)" fill="#f9b499"/>
<path d="M347.64,346.05l9.31,1.31a11.09,11.09,0,0,1,9.43,8.59,16.13,16.13,0,0,1,0,6.81l-21-4S347.17,348.63,347.64,346.05Z" fill="#2f2e41" data-secondary="true"/>
<path d="M347.64,346.05l9.31,1.31a11.09,11.09,0,0,1,9.43,8.59,16.13,16.13,0,0,1,0,6.81l-21-4S347.17,348.63,347.64,346.05Z" opacity="0.2"/>
<path d="M321.35,219.37s-1.72,1.55-1.76,2.95c0,0-.26-1.91.53-2.77Z" fill="#fda575"/>
<path id="e370a88f-6ef3-41bd-8ae3-fbe37559ff8e" data-name="SVGID" d="M349.93,331.71s-2.69,11.19-2.51,14.38l10.32,1.39s9.88,2.87,22.78,15.46a1.7,1.7,0,0,0,1.13-2,.49.49,0,0,1,.51-.58c.91,0,2.28-.2,1.39-2.32l-5-6.25a.12.12,0,0,1,.16-.18c1.43,1,4.5,2.84,6.4,1.65,0,0,1.28-1.44-2.87-3.35,0,0-5.41-3.66-7.8-5.73a16.67,16.67,0,0,0-7-3.39,29.06,29.06,0,0,1-5.95-1.6C357.67,337.63,352.28,335,349.93,331.71Z" fill="#f9b499"/>
<g clip-path="url(#ee1a738d-8305-47d0-8c0b-d49f966c375e)">
<line x1="374.15" y1="352.9" x2="381.65" y2="360.9" fill="none" stroke="#f7a48b" stroke-miterlimit="10"/>
<line x1="374.63" y1="346.85" x2="379.25" y2="352.26" fill="none" stroke="#f7a48b" stroke-miterlimit="10"/>
<path d="M362.22,349.38s3.64-2.22,6.83.49c0,0,2.54,2.72,4.81,2.83a1.64,1.64,0,0,0,.43-3.22h-.07a5.37,5.37,0,0,1-2.22-1.34,11.94,11.94,0,0,1-3.79-5.68" fill="none" stroke="#f7a48b" stroke-miterlimit="10"/>
</g>
<path d="M388.77,422.13l2.09,10.58s10.08,4.91,17.92-3.16c0,0,5.19-5.62,11.06-6.47,0,0,10.44-1.69,17.26-20.68,0,0-.55-3.86-7.06-.85,0,0-7.44,4-14.62,3.72a9.5,9.5,0,0,1-8-4.93c-1.84-3.39-5.6-4.09-8.15-.1a15.71,15.71,0,0,0-.09,2s-2.48,6.17,3.06,8.18c0,0,2.52,1.89-2.12,7.43A11.35,11.35,0,0,1,388.77,422.13Z" fill="#0071f2" data-primary="true"/>
<path d="M390.86,432.71s-2.49-.39-1.73,2.31c0,0,1.25,7.32,11.32,5.67,0,0,9.74-.09,12.16-9.25,0,0,2.17-5.75,9.58-3.82,0,0,4.93,1.72,9.49-3.06,0,0,13.68-13,8.94-19.86,0,0-1.34-2.8-3.52-2.3,0,0-6.19,18.14-17.26,20.68,0,0-4.68,0-11.06,6.47C408.78,429.55,402.77,437.31,390.86,432.71Z" fill="#2f2e41" data-secondary="true"/>
<path d="M390.86,432.71s-2.49-.39-1.73,2.31c0,0,1.25,7.32,11.32,5.67,0,0,9.74-.09,12.16-9.25,0,0,2.17-5.75,9.58-3.82,0,0,4.93,1.72,9.49-3.06,0,0,13.68-13,8.94-19.86,0,0-1.34-2.8-3.52-2.3,0,0-6.19,18.14-17.26,20.68,0,0-4.68,0-11.06,6.47C408.78,429.55,402.77,437.31,390.86,432.71Z" opacity="0.2"/>
<path d="M287.23,279.71l29.06,31.6a2.62,2.62,0,0,0,2.24.83c5.42-.65,25.38-4.62,28.59-28a2.65,2.65,0,0,0-1.19-2.59l-44-28.2S292.34,262.45,287.23,279.71Z" fill="#7e1e4c"/>
<path d="M311.49,244.84s-28.63,17.58-27.4,60.32c0,0-1.64,30.06-7,42.53,0,0-5.13,5.31-1.23,9.84a.59.59,0,0,1-.34,1,2.32,2.32,0,0,0-2,2.5,4.77,4.77,0,0,0,1.43,3.51c3.46,3.49,14.67,12.41,33.4,5.05,0,0,9.81-3.68,21.47-9.41,0,0,7.77-4.09,15.54-1.43,0,0,10.43-44.78,5.93-75.45,0,0-2.88-21.32-7.47-29.47C343.89,253.81,316.19,242,311.49,244.84Z" fill="#0071f2" data-primary="true"/>
<path d="M311.49,244.84s-28.63,17.58-27.4,60.32c0,0-1.64,30.06-7,42.53,0,0-5.13,5.31-1.23,9.84a.59.59,0,0,1-.34,1,2.32,2.32,0,0,0-2,2.5,4.77,4.77,0,0,0,1.43,3.51c3.46,3.49,14.67,12.41,33.4,5.05,0,0,9.81-3.68,21.47-9.41,0,0,7.77-4.09,15.54-1.43,0,0,10.43-44.78,5.93-75.45,0,0-2.88-21.32-7.47-29.47C343.89,253.81,316.19,242,311.49,244.84Z" opacity="0.2"/>
<path d="M311.49,244.84S314,235,311,227.23l8.24-7.54,2.73-.11s3.9,20.75,18.78,20.65a62.21,62.21,0,0,0,2.55,11.5,9.59,9.59,0,0,1,.57,2.08c.26,2,.05,5.16-4.59,3.7,0,0-4.5-.2-13.91-6.33C325.39,251.18,318.85,246.27,311.49,244.84Z" fill="#f9b499"/>
<path d="M340.77,240.23l.54,3.54s-13.33-1.05-17.08-14.91Z" fill="#f7a48b"/>
<ellipse cx="340.77" cy="213.81" rx="19.91" ry="26.42" fill="#f9b499"/>
<path d="M338.77,192.36a25,25,0,0,0,9.81,4.54h0a6.25,6.25,0,0,1-1-2,.35.35,0,0,1,.54-.37c1.06.8,3.5,2.18,8.14,2.67,0,0-1.23-1.67-2.82-4.14l7.35,2.51a.09.09,0,0,0,.12-.1,9.6,9.6,0,0,0-4.43-6.48.18.18,0,0,1,.09-.33,10.19,10.19,0,0,0,4.07-1,.05.05,0,0,0,0-.1c-1-.32-8.28-2.69-12.56-7.12a21.25,21.25,0,0,0-5.58-4.27c-6.7-3.44-20.38-8-31.41,4.26a4.06,4.06,0,0,1-2.75,1.33c-3.93.29-13.51,3.19-11.26,25A50.28,50.28,0,0,0,305,228.82a0,0,0,0,0,.09,0,22.94,22.94,0,0,1-1.07-5.17.26.26,0,0,1,.48-.16,43.19,43.19,0,0,0,6.89,8.57.33.33,0,0,0,.53-.37,12.87,12.87,0,0,1-.89-4.41s0,0,0,0a21.36,21.36,0,0,0,3.86,5.13c.36.36.51.27.32-.2a14.33,14.33,0,0,1-1-4.51.1.1,0,0,1,.2-.05,10.79,10.79,0,0,0,3.88,5,.06.06,0,0,0,.09-.06,21.9,21.9,0,0,1-.88-6.25.21.21,0,0,1,.31-.16l.68.37a.86.86,0,0,0,1.26-.8l-.18-3.86a4.45,4.45,0,0,1,1.36-3.43l4-3.88.35,3.53s1.41.35,1.76-6a36,36,0,0,1,8.31-19.3A2.46,2.46,0,0,1,338.77,192.36Z" fill="#2f2e41" data-secondary="true"/>
<ellipse cx="320.34" cy="213.63" rx="4.76" ry="6.17" fill="#f9b499"/>
<path d="M325.4,310.36s15.16,12.27,21.9,15.16c0,0,7.94,4.33,21.18-2.17L389,310.76a43.21,43.21,0,0,0,5-3.56,7.64,7.64,0,0,1,5.25-1.89s6,1.2,8.67-6.5a2.69,2.69,0,0,1,3.87-2.44,5.19,5.19,0,0,0,2.41.25c.81-.13,1.59-.48,1.53-1.39a1.5,1.5,0,0,0-1.14-1.32c-.79-.22-2.26-.64-4.72-1.44a.21.21,0,0,1,0-.4,15.27,15.27,0,0,1,6.26-1.2s3,.14,2.64-2.68c0,0,2.72-.9.5-2.6a6,6,0,0,0-3-1.15,51.68,51.68,0,0,0-7.13-.19.5.5,0,0,1-.3-.91c2.66-1.79,7.8-5.59,6.61-7.3,0,0-2.64-2.29-10.74,6l-12.16,11.8a37,37,0,0,1-10.92,4.76l-24.54,5.47a2.54,2.54,0,0,1-2.52-.87l-9.23-11.3S340.26,306.57,325.4,310.36Z" fill="#f9b499"/>
<path d="M408.57,288.6s5.93-2,10.2-.41" fill="none" stroke="#f7a48b" stroke-miterlimit="10"/>
<path d="M287.23,279.71l29.06,31.6a2.62,2.62,0,0,0,2.24.83c5.42-.65,25.38-4.62,28.59-28a2.65,2.65,0,0,0-1.19-2.59l-44-28.2S292.34,262.45,287.23,279.71Z" fill="#0071f2" data-primary="true"/>
<path d="M244.11,297.65c-.49,4.42-.06,9.05,2.45,12.77a10.25,10.25,0,0,0,4.93,3.82c5,1.89,16.23,3.71,29.83-9.19a40.55,40.55,0,0,0,4.83-5.55l14.55-20a3.13,3.13,0,0,1,2.71-1.28,20.9,20.9,0,0,0,9.7-1.92s4.94-1.41,6.81,1.88c0,0,2.82,5.16,5.88,5.87,0,0,3.52.23-2.59-8.22A16.75,16.75,0,0,0,315.7,270l16.44,9.16a2.84,2.84,0,0,0,4-.47,5.94,5.94,0,0,0,3.41,1.58,2,2,0,0,0,1.74-3c-.81-1.24-2.51-3-5.85-5.59L323,261.72l10.33.71s6.81,7.52,12,6.58c0,0,2.82-.24-4-5.41a19.41,19.41,0,0,0-16-6.81s-21.38,0-34.77,5.4c0,0-16.27,2.72-30.9,11.65A32.3,32.3,0,0,0,244.11,297.65Z" fill="#f9b499"/>
<path d="M363.8,400.8l5.49.2a.36.36,0,0,1,.35.42c-.45,2.5-2,16.13,13.49,33.93,0,0,23.71,3.1,23-14.37l-11.75-35.7a33.62,33.62,0,0,0-17.88-20.46.37.37,0,0,0-.53.33C376,368.78,375.46,388.56,363.8,400.8Z" fill="#f9b499"/>
<path id="ee3f0cd6-01fc-42d1-962b-2e64686d4918" data-name="SVGID" d="M277.11,366.47S272,403.1,318.23,404.12l42.54-.61s15.74-7.77,15.54-38.85l-30.88-5.93s-5.52-3.07-15.54,1.43c0,0-13.29,6.34-21.47,9.41C308.42,369.57,291.72,377.76,277.11,366.47Z" fill="#2f2e41" data-secondary="true"/>
<g clip-path="url(#a1636474-fb40-4c98-b71b-2a0fed0a8830)">
<g opacity="0.2">
<path d="M370.63,393l-43.85-3.53c-20.37-1.86-21.23-18.63-21.23-18.8l.82,0c0,.66.85,16.22,20.48,18l43.84,3.53Z"/>
</g>
<g opacity="0.2">
<path d="M309.27,380l-.3-.76c.1,0,9.84-4,9.84-14.42h.82C319.63,375.8,309.37,380,309.27,380Z"/>
</g>
</g>
<path d="M383.13,435.35s7.08,12.23,11.16,18.16a12.06,12.06,0,0,0,11.87-2.59s5.2-4.83,3.16-7.06c0,0-5.38-1.29-1.86-8.53A13.14,13.14,0,0,0,405.91,421S408.33,437,383.13,435.35Z" fill="#fff"/>
<path d="M394.29,453.51l.55,10.77s9.28,6.31,18.19-.56c0,0,5.94-4.82,11.88-4.82,0,0,10.57-.19,20-18,0,0,0-3.9-6.87-1.86,0,0-7.94,2.9-15,1.59a9.48,9.48,0,0,1-7.19-6c-1.33-3.61-3.85-8.44-6.94-4.85a20.45,20.45,0,0,1-1.49,5.57s-3.77,6.4,1.34,8.36a1.42,1.42,0,0,1,.9,1c.25,1-.2,2.87-3.54,6.27C406.16,450.92,402.06,455.69,394.29,453.51Z" fill="#0071f2" data-primary="true"/>
<path d="M394.84,464.28s-2.41-.74-2,2c0,0,.19,7.42,10.4,7.24,0,0,9.64,1.29,13.36-7.43,0,0,3-5.38,10-2.41,0,0,4.64,2.41,9.83-1.67,0,0,15.4-10.95,11.69-18.37,0,0-.93-3-3.15-2.78,0,0-8.72,17.07-20,18,0,0-4.64-.63-11.88,4.82C413,463.72,406,470.54,394.84,464.28Z" fill="#2f2e41" data-secondary="true"/>
<path d="M394.84,464.28s-2.41-.74-2,2c0,0,.19,7.42,10.4,7.24,0,0,9.64,1.29,13.36-7.43,0,0,3-5.38,10-2.41,0,0,4.64,2.41,9.83-1.67,0,0,15.4-10.95,11.69-18.37,0,0-.93-3-3.15-2.78,0,0-8.72,17.07-20,18,0,0-4.64-.63-11.88,4.82C413,463.72,406,470.54,394.84,464.28Z" opacity="0.2"/>
<path id="a3ccdea5-07e4-4337-a44d-06308cce7e95" data-name="SVGID" d="M583.07,326a7.51,7.51,0,0,0-.73,1.26c-9.27,20.07-19.84,25.68-19.84,25.68-19.67,11.73-36,14.44-42,15.05a13.59,13.59,0,0,1-4.67-.33c-34.85-8.41-47.68-43.18-47.68-43.18s29.25-.86,45.32-21.79l.56,1.17-7.65,47.77,52.84-20.19.12-.56a24.49,24.49,0,0,1,2.26-6.14,8.76,8.76,0,0,0,.83-6.72l-.29-.55c-.93-1.84-3.72-7.73-1.2-8.05,0,0,1.11-.17,2.59,1.36s3.52,5.07,5.05,12.56a.18.18,0,0,0,.36,0c-.13-2.45-1.42-8.61-2.32-14.68,0,0-1.76-6.34,2.3-4.58,0,0-1.94-6.69.7-6,0,0,1.95.94,4.46,7a57.58,57.58,0,0,1,2.59,7.45c.44,1.65,1,3.68,1.5,5.59a1.15,1.15,0,0,0,2.18.13,19,19,0,0,0,1.43-8.19s-2-10.54-.18-11.1c0,0,1.41-2.12,5.46,12.33C587.05,311.23,588.56,317.94,583.07,326Z" fill="#f9b499"/>
<g clip-path="url(#bf533cf5-073d-4491-9a17-bafc7ed6c524)">
<line x1="568.91" y1="304" x2="573.67" y2="322.08" fill="#f9b499"/>
</g>
<path d="M684.27,441.52h0a.12.12,0,0,0-.08-.15.13.13,0,0,0-.15.08,164.56,164.56,0,0,0-8.67,27,249.41,249.41,0,0,0-4.83,28l-.69,7.07c-.11,1.17-.24,2.35-.33,3.54l-.19,3.54c-.07,2.35-.26,4.73-.33,7.11l0,7.11.17,3.54c.06,1.19.14,2.37.22,3.55.17,2.37.31,4.73.52,7.09.45,4.71,1.12,9.42,1.86,14.07a.11.11,0,0,0,.07.13.12.12,0,0,0,.15-.08h0c.05-2.4-.1-4.72-.15-7.09s-.27-4.7-.22-7.05,0-4.71-.07-7.06l-.06-3.52.08-3.53,0-7,.22-7,.08-3.52c0-1.18.15-2.34.22-3.52l.45-7a249.93,249.93,0,0,1,4-27.9A163.76,163.76,0,0,1,684.27,441.52Z" fill="#ccc"/>
<path d="M685.23,478.39a.12.12,0,0,0-.08-.15.13.13,0,0,0-.15.06v0a164.49,164.49,0,0,0-8.06,36.26c-.63,6.16-1.33,12.33-1.44,18.54a153.69,153.69,0,0,0,.62,18.58.12.12,0,0,0,.07.13.11.11,0,0,0,.14-.06v0c.72-6.16,1.18-12.32,1.62-18.47s.53-12.32.94-18.48a183,183,0,0,1,6.31-36.35Z" fill="#ccc"/>
<path d="M705.62,491.4a.13.13,0,0,0-.17,0h0a62.8,62.8,0,0,0-13.69,11.87,55.89,55.89,0,0,0-5.35,7.42l-1.12,2-.86,2.16a16.86,16.86,0,0,0-.75,2.17c-.23.73-.48,1.46-.67,2.2a87.82,87.82,0,0,0-2.87,18,103.88,103.88,0,0,0,.64,18.15.11.11,0,0,0,.07.12.12.12,0,0,0,.15-.08l1.6-18a155,155,0,0,1,2.31-17.7c.17-.71.37-1.42.55-2.14a21.42,21.42,0,0,1,.64-2.11l.73-2.08.95-1.94a54,54,0,0,1,4.91-7.43,62.57,62.57,0,0,1,12.84-12.44h0a.14.14,0,0,0,.12-.14Z" fill="#ccc"/>
<path d="M695.69,514.44a19.9,19.9,0,0,0-6.23,7.45A44.56,44.56,0,0,0,686,531c-.24.78-.43,1.58-.61,2.38l-.57,2.38a39.52,39.52,0,0,0-.61,4.84c0,1.63-.08,3.26,0,4.92a47,47,0,0,0,.63,4.85.12.12,0,0,0,.07.11.12.12,0,0,0,.15-.07v0a41.41,41.41,0,0,0,1-4.8c.27-1.55.5-3.15.69-4.72s.45-3.12.58-4.71a32,32,0,0,1,.69-4.68,42.75,42.75,0,0,1,2.67-9,20.17,20.17,0,0,1,5.23-7.77h0a.17.17,0,0,0,0-.18.13.13,0,0,0-.12-.12A.12.12,0,0,0,695.69,514.44Z" fill="#ccc"/>
<path d="M667,532.37c-.68-8-2-15.87-3.18-23.76s-2.58-15.76-4-23.61-3-15.68-4.71-23.49a.1.1,0,0,0-.12-.09h0a.12.12,0,0,0-.11.14h0q2,11.79,3.71,23.64c1.18,7.88,2.29,15.77,3.26,23.69s1.71,15.85,2.67,23.71l2.86,23.75a.12.12,0,0,0,.07.12.12.12,0,0,0,.15-.08c.1-2,.11-4,.17-6s-.08-4-.11-6C667.62,540.35,667.3,536.36,667,532.37Z" fill="#ccc"/>
<path d="M662.23,532.24c-.4-3.18-1-6.3-1.59-9.42l-1.11-4.66c-.36-1.56-.71-3.12-1.21-4.61a132.63,132.63,0,0,0-6.05-18.14l-1-2.25L650.21,491c-.68-1.45-1.49-2.83-2.27-4.23a35.09,35.09,0,0,0-5.73-7.65.11.11,0,0,0-.15,0h0a.12.12,0,0,0,0,.17h0a35.88,35.88,0,0,1,5.25,7.83c.69,1.41,1.41,2.81,2,4.27l.93,2.18.83,2.21a133,133,0,0,1,5.28,18.14c.71,3.08,1.19,6.2,1.78,9.3l.73,4.67c.27,1.56.59,3.1.81,4.67.5,3.11,1.07,6.22,1.6,9.34s1,6.25,1.69,9.39a.14.14,0,0,0,.07.12.12.12,0,0,0,.15-.08c0-3.18,0-6.38-.2-9.55S662.55,535.41,662.23,532.24Z" fill="#ccc"/>
<path d="M655.62,532.63c-1.47-4.18-3.16-8.29-5-12.29a104.91,104.91,0,0,0-6.32-11.66.14.14,0,0,0-.17,0,.11.11,0,0,0,0,.16h0a110.58,110.58,0,0,1,5.4,12,130.07,130.07,0,0,1,4.23,12.44c1.18,4.22,2.12,8.48,3.23,12.7s2.11,8.48,3.4,12.75a.11.11,0,0,0,.07.12.12.12,0,0,0,.15-.08,62.76,62.76,0,0,0-1.21-13.26A80.94,80.94,0,0,0,655.62,532.63Z" fill="#ccc"/>
<path d="M655.32,546.56a28.55,28.55,0,0,0-3.49-7.36,30.38,30.38,0,0,0-5.1-6.36,22.8,22.8,0,0,0-3.21-2.41,13.61,13.61,0,0,0-3.68-1.68.13.13,0,0,0-.14.08.1.1,0,0,0,.06.14h0a18.25,18.25,0,0,1,6.12,4.77,29.12,29.12,0,0,1,4.24,6.45c1.2,2.3,1.82,4.83,2.87,7.19.46,1.21.92,2.42,1.46,3.64a29.18,29.18,0,0,0,1.59,3.68h0a.11.11,0,0,0,.05.09.12.12,0,0,0,.15-.08,26.87,26.87,0,0,0-.17-4.11A36.18,36.18,0,0,0,655.32,546.56Z" fill="#ccc"/>
<path d="M656,472.93a22.67,22.67,0,0,1-16-17.12c-3-14.07,6.69-8-2-30.15s-6.64-27.15-3.55-33.54,4.69-4.34,7.35,4,12.35,21.46,16,45.92S656,472.93,656,472.93Z" fill="#b2b2b2"/>
<path d="M681.83,449.2s-8.72-3-9-19.45,6.4-13.05,7.46-33.47,2.41-34.83,6.09-35.16S699.74,371.19,703,394s-4.43,37.85-11.15,44.53S681.83,449.2,681.83,449.2Z" fill="#b2b2b2"/>
<path d="M651.24,492.68s-2-12.06-6-17.77-12.71-10.74-18.38-21.83-12.08-16.4-11.73-.68,7.32,23.79,16,29.17S651.24,492.68,651.24,492.68Z" fill="#b2b2b2"/>
<path d="M647.51,513.44s-8-15.43-19.7-26.84-21.07-17.13-17.68-11.45,7.35,5.37,13,15.43,4,17.38,12,23.14S647.51,513.44,647.51,513.44Z" fill="#b2b2b2"/>
<path d="M646.47,533.2c-.29-1-.66-8.37-12.07-14.43s-22.1-3.73-20.76-.72S622,526.11,629,529.14,646.47,533.2,646.47,533.2Z" fill="#b2b2b2"/>
<path d="M681.06,493.41s-5-6.37-2.29-19.72,8.74-10,15.46-17.05,5.37-8,12.08-15.38,12.73-11.41,15.44-8.34-1.4,12.4-5.39,17.73-10.41,8-13.43,14.7-1.72,17.43-9.43,22.43S681.06,493.41,681.06,493.41Z" fill="#b2b2b2"/>
<path d="M697.83,497.12s12.09-13.71,20.82-23.74,12.09-17.73,12.42-11,3,12.06-4.07,20.75S697.83,497.12,697.83,497.12Z" fill="#b2b2b2"/>
<path d="M691.39,519.23s-.36-5.41,18.79-17.72,27.16-14.67,25.14-9.65-10.38,10.07-19.46,19.05S691.39,519.23,691.39,519.23Z" fill="#b2b2b2"/>
<path d="M656.78,471.5s-4.43-24-9.07-41.12-7.65-27.48-7.65-27.48" fill="#ccc"/>
<path d="M681.05,449.45s8.2-26,10.91-41.77-.27-27.46-1.6-34.5" fill="#ccc"/>
<path d="M650.19,492.18a126.32,126.32,0,0,0-12.3-17.62c-7.35-8.72-13-13.43-16.37-21.81" fill="#ccc"/>
<path d="M681.06,493.41s2.76-16.1,9.11-24.4,19.14-21.39,24.19-29.75" fill="#ccc"/>
<path d="M645.68,532.83s-11.26-7.36-19.29-11.4" fill="#ccc"/>
<path d="M678.36,603.92l-14.77-.06a6.44,6.44,0,0,1-6-4c-4.8-11.55-17.59-44.9-9.82-54.33,7.4-9,39.19-8.92,46.56.1,7.73,9.46-5.23,42.77-10,54.3A6.48,6.48,0,0,1,678.36,603.92Z" fill="#b2b2b2"/>
</svg>